<svg id="svg" version="1.1" xmlns="http://www.w3.org/2000/svg" xmlns:xlink="http://www.w3.org/1999/xlink" width="400" height="100.8" viewBox="0, 0, 400,100.8"><g id="svgg"><path id="path0" d="M122.409 20.108 L 122.000 20.549 122.000 49.824 C 122.000 72.372,122.046 79.146,122.200 79.300 C 122.353 79.453,126.296 79.500,138.931 79.500 L 155.461 79.500 155.562 79.125 C 155.883 77.928,155.646 74.667,155.238 74.667 C 155.114 74.667,154.931 74.517,154.833 74.333 C 154.657 74.004,154.484 74.000,141.161 74.000 L 127.667 74.000 127.667 62.333 L 127.667 50.667 140.833 50.667 L 154.000 50.667 154.000 48.333 L 154.000 46.000 140.833 46.000 L 127.667 46.000 127.667 35.583 L 127.667 25.167 141.504 25.167 L 155.342 25.167 155.504 24.739 C 155.916 23.657,155.638 20.130,155.115 19.798 C 155.006 19.728,147.694 19.671,138.867 19.669 L 122.817 19.667 122.409 20.108 M170.103 19.926 C 170.046 20.073,170.000 33.540,170.000 49.851 L 170.000 79.508 172.701 79.462 L 175.402 79.417 175.518 79.000 C 175.666 78.465,175.703 40.227,175.557 38.170 C 175.464 36.860,175.400 36.609,175.140 36.541 C 174.854 36.467,174.835 36.236,174.853 33.189 C 174.863 31.389,174.906 30.044,174.947 30.201 C 174.988 30.357,175.167 30.530,175.344 30.587 C 175.547 30.651,175.667 30.840,175.667 31.095 C 175.667 31.381,175.759 31.500,175.981 31.500 C 176.225 31.500,176.320 31.665,176.405 32.233 C 176.483 32.751,176.606 32.989,176.827 33.047 C 176.998 33.091,177.164 33.306,177.194 33.522 C 177.231 33.779,177.378 33.935,177.616 33.969 C 177.916 34.011,177.991 34.146,178.033 34.719 C 178.075 35.297,178.148 35.426,178.458 35.470 C 178.730 35.508,178.833 35.635,178.833 35.928 C 178.833 36.249,178.920 36.333,179.250 36.333 C 179.632 36.333,179.667 36.395,179.667 37.072 C 179.667 37.664,179.733 37.832,180.000 37.917 C 180.183 37.975,180.333 38.121,180.333 38.242 C 180.333 38.363,180.516 38.582,180.740 38.728 C 181.029 38.917,181.161 39.176,181.198 39.622 C 181.239 40.116,181.326 40.261,181.605 40.301 C 181.875 40.339,181.985 40.506,182.064 40.998 C 182.135 41.442,182.271 41.677,182.500 41.750 C 182.713 41.818,182.833 42.002,182.833 42.261 C 182.833 42.583,182.920 42.667,183.250 42.667 C 183.632 42.667,183.667 42.729,183.667 43.405 C 183.667 43.998,183.733 44.165,184.000 44.250 C 184.183 44.308,184.378 44.538,184.434 44.761 C 184.497 45.012,184.656 45.167,184.851 45.167 C 185.089 45.167,185.167 45.287,185.167 45.653 C 185.167 46.356,185.325 46.667,185.684 46.667 C 185.910 46.667,186.000 46.786,186.000 47.083 C 186.000 47.414,186.084 47.500,186.408 47.500 C 186.775 47.500,186.820 47.577,186.866 48.292 C 186.909 48.967,186.972 49.091,187.292 49.137 C 187.557 49.174,187.667 49.302,187.667 49.575 C 187.667 49.811,187.787 49.993,187.975 50.042 C 188.186 50.097,188.318 50.339,188.394 50.811 C 188.480 51.351,188.576 51.500,188.835 51.500 C 189.079 51.500,189.167 51.612,189.167 51.924 C 189.167 52.158,189.354 52.536,189.583 52.765 C 189.813 52.994,190.000 53.327,190.000 53.504 C 190.000 53.708,190.151 53.865,190.408 53.929 C 190.733 54.011,190.825 54.154,190.866 54.641 C 190.903 55.084,191.019 55.295,191.292 55.415 C 191.522 55.515,191.667 55.725,191.667 55.956 C 191.667 56.218,191.765 56.333,191.990 56.333 C 192.245 56.333,192.337 56.491,192.425 57.083 C 192.513 57.667,192.607 57.833,192.852 57.833 C 193.077 57.833,193.167 57.953,193.167 58.250 C 193.167 58.581,193.251 58.667,193.574 58.667 C 193.942 58.667,193.987 58.744,194.033 59.458 C 194.076 60.134,194.138 60.258,194.458 60.303 C 194.717 60.340,194.833 60.470,194.833 60.722 C 194.833 60.941,194.983 61.153,195.208 61.252 C 195.484 61.373,195.597 61.582,195.635 62.042 C 195.674 62.517,195.760 62.667,195.992 62.667 C 196.207 62.667,196.328 62.835,196.405 63.245 C 196.464 63.563,196.653 63.922,196.823 64.041 C 196.994 64.160,197.160 64.444,197.192 64.671 C 197.231 64.945,197.372 65.101,197.616 65.135 C 197.905 65.177,197.992 65.316,198.032 65.802 C 198.070 66.251,198.184 66.461,198.458 66.581 C 198.688 66.682,198.833 66.892,198.833 67.123 C 198.833 67.414,198.928 67.500,199.250 67.500 C 199.633 67.500,199.667 67.561,199.667 68.250 C 199.667 68.880,199.718 69.000,199.988 69.000 C 200.195 69.000,200.329 69.134,200.363 69.375 C 200.398 69.616,200.551 69.769,200.792 69.803 C 201.095 69.846,201.167 69.963,201.167 70.415 C 201.167 71.189,201.315 71.500,201.684 71.500 C 201.901 71.500,202.000 71.618,202.000 71.877 C 202.000 72.108,202.145 72.318,202.375 72.419 C 202.651 72.540,202.764 72.749,202.802 73.208 C 202.846 73.746,202.911 73.833,203.260 73.833 C 203.601 73.833,203.667 73.914,203.667 74.333 C 203.667 74.609,203.814 74.981,203.996 75.162 C 204.177 75.343,204.372 75.681,204.430 75.912 C 204.494 76.164,204.655 76.333,204.830 76.333 C 205.045 76.333,205.153 76.516,205.233 77.017 C 205.311 77.502,205.438 77.725,205.671 77.786 C 205.882 77.841,206.000 78.014,206.000 78.269 C 206.000 78.582,206.089 78.667,206.417 78.667 C 206.750 78.667,206.833 78.750,206.833 79.083 L 206.833 79.500 209.584 79.500 L 212.334 79.500 212.292 49.625 L 212.250 19.750 209.773 19.704 C 208.088 19.672,207.221 19.719,207.064 19.849 C 206.869 20.011,206.833 23.814,206.833 44.187 L 206.833 68.333 206.417 68.333 C 206.034 68.333,206.000 68.272,206.000 67.587 C 206.000 66.929,205.950 66.827,205.583 66.735 C 205.323 66.670,205.167 66.513,205.167 66.315 C 205.167 66.090,205.048 66.000,204.750 66.000 C 204.361 66.000,204.333 65.944,204.333 65.167 C 204.333 64.463,204.285 64.333,204.021 64.333 C 203.807 64.333,203.677 64.176,203.609 63.836 C 203.554 63.562,203.357 63.208,203.171 63.049 C 202.985 62.889,202.833 62.588,202.833 62.380 C 202.833 62.086,202.739 62.000,202.417 62.000 C 202.053 62.000,202.000 61.927,202.000 61.429 C 202.000 60.886,201.657 60.333,201.321 60.333 C 201.236 60.333,201.167 60.146,201.167 59.917 C 201.167 59.583,201.083 59.500,200.750 59.500 C 200.367 59.500,200.333 59.439,200.333 58.750 C 200.333 58.120,200.282 58.000,200.012 58.000 C 199.805 58.000,199.671 57.866,199.637 57.625 C 199.603 57.387,199.449 57.231,199.217 57.198 C 198.917 57.155,198.842 57.021,198.801 56.448 C 198.762 55.916,198.662 55.712,198.382 55.588 C 198.179 55.500,197.992 55.275,197.965 55.088 C 197.936 54.884,197.768 54.729,197.542 54.697 C 197.217 54.651,197.167 54.544,197.167 53.905 C 197.167 53.239,197.128 53.167,196.771 53.167 C 196.441 53.167,196.359 53.060,196.272 52.518 C 196.215 52.162,196.061 51.829,195.931 51.778 C 195.800 51.728,195.668 51.514,195.638 51.302 C 195.608 51.090,195.418 50.844,195.217 50.756 C 194.966 50.646,194.816 50.390,194.741 49.944 C 194.666 49.503,194.529 49.266,194.315 49.210 C 194.117 49.158,194.000 48.980,194.000 48.731 C 194.000 48.420,193.911 48.333,193.593 48.333 C 193.233 48.333,193.180 48.251,193.135 47.625 C 193.092 47.036,193.020 46.908,192.708 46.863 C 192.437 46.825,192.333 46.698,192.333 46.405 C 192.333 46.111,192.242 46.000,192.000 46.000 C 191.748 46.000,191.666 45.888,191.664 45.542 C 191.661 44.768,191.479 44.333,191.159 44.333 C 190.972 44.333,190.836 44.190,190.803 43.958 C 190.769 43.717,190.616 43.564,190.375 43.530 C 190.051 43.484,190.000 43.377,190.000 42.738 C 190.000 42.062,189.965 42.000,189.583 42.000 C 189.248 42.000,189.167 41.917,189.167 41.576 C 189.167 41.342,188.979 40.964,188.750 40.735 C 188.521 40.506,188.333 40.165,188.333 39.977 C 188.333 39.780,188.197 39.600,188.012 39.551 C 187.789 39.493,187.656 39.261,187.577 38.797 C 187.501 38.347,187.363 38.100,187.158 38.046 C 186.990 38.002,186.829 37.805,186.801 37.608 C 186.770 37.387,186.610 37.230,186.384 37.198 C 186.084 37.155,186.009 37.021,185.967 36.448 C 185.925 35.870,185.852 35.741,185.542 35.697 C 185.270 35.658,185.167 35.532,185.167 35.238 C 185.167 34.917,185.080 34.833,184.750 34.833 C 184.361 34.833,184.333 34.778,184.333 34.000 C 184.333 33.288,184.287 33.167,184.012 33.167 C 183.805 33.167,183.671 33.033,183.637 32.792 C 183.603 32.554,183.449 32.398,183.217 32.365 C 182.917 32.322,182.842 32.187,182.801 31.615 C 182.759 31.036,182.686 30.908,182.375 30.863 C 182.101 30.825,182.000 30.699,182.000 30.397 C 182.000 30.171,181.818 29.803,181.596 29.580 C 181.373 29.358,181.167 29.005,181.137 28.796 C 181.102 28.551,180.951 28.398,180.708 28.363 C 180.390 28.318,180.333 28.208,180.333 27.639 C 180.333 27.115,180.263 26.950,180.009 26.884 C 179.831 26.837,179.662 26.638,179.634 26.441 C 179.602 26.217,179.443 26.063,179.208 26.030 C 178.904 25.987,178.833 25.871,178.833 25.417 C 178.833 24.892,178.489 24.333,178.166 24.333 C 178.088 24.333,177.999 24.165,177.970 23.958 C 177.936 23.721,177.783 23.564,177.551 23.531 C 177.251 23.489,177.176 23.354,177.134 22.781 C 177.092 22.203,177.019 22.074,176.708 22.030 C 176.437 21.992,176.333 21.865,176.333 21.572 C 176.333 21.288,176.241 21.167,176.024 21.167 C 175.794 21.167,175.676 20.984,175.565 20.458 L 175.416 19.750 172.811 19.704 C 170.545 19.664,170.192 19.693,170.103 19.926 M232.552 19.875 C 232.403 20.105,232.268 78.523,232.415 79.125 L 232.506 79.500 248.837 79.500 L 265.167 79.500 265.167 77.014 C 265.167 75.646,265.121 74.409,265.066 74.264 C 264.974 74.026,263.622 74.000,251.482 74.000 L 238.000 74.000 238.000 62.333 L 238.000 50.667 250.808 50.667 C 265.794 50.667,264.146 50.948,264.288 48.368 C 264.373 46.834,264.353 46.687,264.023 46.356 L 263.667 46.000 250.833 46.000 L 238.000 46.000 238.000 35.583 L 238.000 25.167 251.583 25.167 L 265.167 25.167 265.167 22.417 L 265.167 19.667 248.927 19.667 C 236.117 19.667,232.658 19.711,232.552 19.875 M280.421 20.542 C 280.365 21.023,280.341 34.467,280.368 50.417 L 280.417 79.417 283.167 79.417 L 285.917 79.417 285.959 66.708 L 286.002 54.000 292.418 54.000 L 298.833 54.000 298.833 54.587 C 298.833 55.051,298.920 55.213,299.250 55.364 C 299.522 55.487,299.667 55.689,299.667 55.943 C 299.667 56.222,299.762 56.333,300.000 56.333 C 300.234 56.333,300.334 56.445,300.336 56.708 C 300.340 57.375,300.529 57.820,300.851 57.922 C 301.050 57.985,301.167 58.177,301.167 58.439 C 301.167 58.988,301.451 59.500,301.756 59.500 C 301.898 59.500,302.000 59.657,302.000 59.877 C 302.000 60.108,302.145 60.318,302.375 60.419 C 302.651 60.540,302.764 60.749,302.802 61.208 C 302.843 61.710,302.933 61.852,303.260 61.934 C 303.606 62.021,303.667 62.135,303.667 62.700 C 303.667 63.208,303.740 63.384,303.978 63.446 C 304.161 63.494,304.367 63.788,304.479 64.163 C 304.584 64.513,304.782 64.842,304.918 64.894 C 305.055 64.947,305.167 65.179,305.167 65.411 C 305.167 65.748,305.249 65.833,305.574 65.833 C 305.942 65.833,305.987 65.910,306.033 66.625 C 306.076 67.301,306.138 67.424,306.458 67.470 C 306.747 67.511,306.833 67.632,306.833 67.998 C 306.833 68.690,306.994 69.000,307.351 69.000 C 307.577 69.000,307.667 69.119,307.667 69.417 C 307.667 69.722,307.756 69.833,308.000 69.833 C 308.252 69.833,308.334 69.945,308.336 70.292 C 308.340 71.077,308.521 71.500,308.853 71.500 C 309.067 71.500,309.167 71.620,309.169 71.875 C 309.173 72.580,309.366 73.000,309.686 73.000 C 309.910 73.000,310.000 73.120,310.000 73.417 C 310.000 73.646,310.080 73.833,310.179 73.833 C 310.534 73.833,310.833 74.322,310.833 74.905 C 310.833 75.429,310.883 75.500,311.250 75.500 C 311.631 75.500,311.667 75.562,311.667 76.231 C 311.667 76.794,311.735 76.979,311.966 77.039 C 312.143 77.086,312.351 77.401,312.473 77.809 C 312.587 78.190,312.784 78.500,312.912 78.500 C 313.042 78.500,313.168 78.703,313.197 78.958 L 313.250 79.417 316.417 79.417 L 319.583 79.417 319.583 78.333 C 319.583 77.345,319.551 77.245,319.217 77.198 C 318.917 77.155,318.842 77.021,318.801 76.448 C 318.762 75.912,318.663 75.712,318.375 75.585 C 318.169 75.495,318.000 75.279,318.000 75.105 C 318.000 74.931,317.813 74.614,317.583 74.402 C 317.349 74.185,317.167 73.830,317.167 73.591 C 317.167 73.249,317.085 73.167,316.750 73.167 C 316.366 73.167,316.333 73.107,316.333 72.401 C 316.333 71.788,316.270 71.619,316.016 71.552 C 315.813 71.499,315.659 71.263,315.591 70.898 C 315.532 70.583,315.337 70.234,315.158 70.123 C 314.980 70.011,314.833 69.750,314.833 69.543 C 314.833 69.255,314.738 69.167,314.426 69.167 C 314.058 69.167,314.013 69.090,313.967 68.375 C 313.925 67.706,313.860 67.575,313.551 67.531 C 313.262 67.490,313.175 67.351,313.134 66.865 C 313.097 66.416,312.982 66.206,312.708 66.085 C 312.478 65.985,312.333 65.775,312.333 65.544 C 312.333 65.278,312.235 65.167,312.000 65.167 C 311.732 65.167,311.667 65.056,311.667 64.597 C 311.667 63.812,311.520 63.500,311.149 63.500 C 310.933 63.500,310.833 63.381,310.831 63.125 C 310.827 62.420,310.634 62.000,310.314 62.000 C 310.090 62.000,310.000 61.880,310.000 61.583 C 310.000 61.252,309.916 61.167,309.592 61.167 C 309.225 61.167,309.180 61.090,309.134 60.375 C 309.091 59.699,309.028 59.576,308.708 59.530 C 308.384 59.484,308.333 59.377,308.333 58.738 C 308.333 58.111,308.283 58.000,308.000 58.000 C 307.785 58.000,307.667 57.889,307.667 57.686 C 307.667 57.513,307.484 57.252,307.260 57.105 C 306.971 56.916,306.839 56.657,306.802 56.211 C 306.761 55.711,306.675 55.573,306.384 55.531 C 306.084 55.489,306.009 55.354,305.967 54.781 C 305.926 54.214,305.850 54.074,305.559 54.032 C 305.189 53.980,305.025 53.468,305.135 52.708 C 305.184 52.377,305.286 52.333,306.019 52.333 C 306.682 52.333,306.932 52.249,307.265 51.917 C 307.494 51.688,307.821 51.500,307.990 51.500 C 308.160 51.500,308.475 51.314,308.691 51.086 C 308.921 50.844,309.273 50.671,309.542 50.670 C 309.888 50.667,310.000 50.585,310.000 50.333 C 310.000 50.091,310.111 50.000,310.405 50.000 C 310.693 50.000,310.826 49.896,310.863 49.639 C 310.902 49.378,311.101 49.227,311.583 49.093 C 312.068 48.958,312.264 48.808,312.302 48.545 C 312.331 48.346,312.500 48.136,312.677 48.080 C 312.896 48.011,313.033 47.766,313.104 47.322 C 313.192 46.773,313.273 46.667,313.605 46.667 C 313.915 46.667,314.000 46.577,314.000 46.250 C 314.000 45.952,314.090 45.833,314.316 45.833 C 314.673 45.833,314.833 45.523,314.833 44.831 C 314.833 44.512,314.937 44.323,315.147 44.256 C 315.481 44.150,315.667 43.530,315.667 42.519 C 315.667 42.094,315.766 41.851,316.000 41.705 C 316.514 41.384,316.522 31.755,316.008 31.620 C 315.732 31.548,315.675 31.363,315.633 30.393 C 315.588 29.352,315.550 29.245,315.208 29.197 C 314.886 29.151,314.833 29.043,314.833 28.423 C 314.833 27.798,314.779 27.689,314.426 27.601 C 314.086 27.515,314.011 27.382,313.968 26.791 C 313.926 26.209,313.852 26.074,313.552 26.031 C 313.325 25.999,313.168 25.842,313.135 25.615 C 313.102 25.384,312.946 25.230,312.708 25.197 C 312.465 25.162,312.333 25.029,312.333 24.818 C 312.333 24.623,312.165 24.428,311.917 24.333 C 311.688 24.246,311.500 24.069,311.500 23.940 C 311.500 23.789,311.231 23.664,310.750 23.592 C 310.158 23.503,310.000 23.412,310.000 23.156 C 310.000 22.927,309.885 22.833,309.604 22.833 C 309.383 22.833,309.102 22.674,308.969 22.475 C 308.786 22.199,308.515 22.098,307.795 22.039 C 306.979 21.971,306.847 21.910,306.760 21.564 C 306.667 21.193,306.584 21.167,305.497 21.167 C 304.470 21.167,304.333 21.130,304.333 20.854 C 304.333 20.414,303.757 20.333,300.603 20.333 C 298.094 20.333,297.900 20.311,297.705 20.000 C 297.502 19.674,297.317 19.667,289.011 19.667 L 280.524 19.667 280.421 20.542 M358.500 20.000 C 358.190 20.310,357.944 20.333,355.019 20.333 L 351.872 20.333 351.603 20.743 C 351.359 21.116,351.210 21.158,349.959 21.202 C 348.676 21.247,348.580 21.275,348.530 21.625 C 348.483 21.957,348.381 22.000,347.644 22.000 C 346.718 22.000,346.167 22.220,346.167 22.589 C 346.167 22.768,345.962 22.833,345.401 22.833 C 344.791 22.833,344.619 22.897,344.553 23.148 C 344.498 23.361,344.264 23.495,343.828 23.565 C 343.474 23.621,343.086 23.809,342.966 23.981 C 342.845 24.153,342.597 24.322,342.415 24.357 C 342.224 24.393,342.061 24.579,342.030 24.793 C 341.989 25.080,341.867 25.167,341.502 25.167 C 340.810 25.167,340.500 25.327,340.500 25.684 C 340.500 25.910,340.381 26.000,340.083 26.000 C 339.750 26.000,339.667 26.083,339.667 26.417 C 339.667 26.750,339.583 26.833,339.250 26.833 C 338.952 26.833,338.833 26.923,338.833 27.149 C 338.833 27.346,338.677 27.503,338.417 27.568 C 338.154 27.634,338.000 27.791,338.000 27.992 C 338.000 28.195,337.865 28.329,337.625 28.363 C 337.384 28.398,337.231 28.551,337.197 28.792 C 337.163 29.033,337.029 29.167,336.822 29.167 C 336.610 29.167,336.500 29.282,336.500 29.504 C 336.500 29.711,336.338 29.903,336.083 30.000 C 335.736 30.132,335.667 30.268,335.667 30.818 C 335.667 31.374,335.608 31.485,335.292 31.530 C 335.059 31.563,334.898 31.717,334.866 31.935 C 334.839 32.129,334.633 32.371,334.408 32.474 C 334.075 32.625,334.000 32.781,334.000 33.318 C 334.000 33.874,333.942 33.985,333.625 34.030 C 333.314 34.074,333.241 34.203,333.199 34.783 C 333.163 35.288,333.063 35.510,332.842 35.581 C 332.632 35.647,332.502 35.909,332.426 36.414 C 332.348 36.931,332.221 37.180,331.998 37.251 C 331.725 37.337,331.673 37.544,331.632 38.717 C 331.588 39.951,331.547 40.099,331.208 40.248 C 330.856 40.402,330.833 40.512,330.833 42.040 C 330.833 43.525,330.806 43.667,330.518 43.667 C 330.014 43.667,330.000 43.863,330.000 50.691 C 330.000 57.202,330.052 57.833,330.589 57.833 C 330.787 57.833,330.833 58.148,330.833 59.508 C 330.833 61.080,330.859 61.206,331.250 61.569 C 331.613 61.905,331.667 62.096,331.667 63.050 C 331.667 63.998,331.711 64.158,332.000 64.250 C 332.231 64.323,332.333 64.502,332.333 64.831 C 332.333 65.518,332.493 65.833,332.842 65.833 C 333.089 65.833,333.158 65.986,333.199 66.625 C 333.243 67.301,333.305 67.424,333.625 67.470 C 333.949 67.516,334.000 67.623,334.000 68.258 C 334.000 68.904,334.051 69.006,334.417 69.098 C 334.677 69.164,334.833 69.321,334.833 69.518 C 334.833 69.691,334.919 69.833,335.023 69.833 C 335.325 69.833,335.656 70.375,335.661 70.879 C 335.665 71.216,335.779 71.384,336.083 71.500 C 336.338 71.597,336.500 71.789,336.500 71.996 C 336.500 72.222,336.610 72.333,336.833 72.333 C 337.054 72.333,337.167 72.444,337.167 72.663 C 337.167 72.877,337.314 73.031,337.583 73.098 C 337.844 73.164,338.000 73.321,338.000 73.518 C 338.000 73.743,338.119 73.833,338.417 73.833 C 338.750 73.833,338.833 73.917,338.833 74.250 C 338.833 74.583,338.917 74.667,339.250 74.667 C 339.505 74.667,339.667 74.762,339.667 74.911 C 339.667 75.215,340.179 75.500,340.727 75.500 C 341.032 75.500,341.158 75.600,341.197 75.875 C 341.234 76.139,341.380 76.265,341.691 76.301 C 341.959 76.332,342.166 76.478,342.216 76.671 C 342.274 76.893,342.505 77.023,342.969 77.098 C 343.428 77.171,343.663 77.303,343.720 77.519 C 343.790 77.787,343.964 77.833,344.901 77.833 C 345.962 77.833,346.000 77.848,346.000 78.250 C 346.000 78.655,346.034 78.667,347.163 78.667 C 348.266 78.667,348.333 78.689,348.432 79.083 C 348.536 79.499,348.543 79.500,350.518 79.500 C 352.352 79.500,352.500 79.524,352.500 79.816 C 352.500 80.315,352.718 80.333,358.669 80.333 C 364.288 80.333,365.167 80.256,365.167 79.759 C 365.167 79.551,365.564 79.501,367.542 79.463 C 369.850 79.418,369.918 79.406,369.969 79.048 C 370.018 78.702,370.116 78.676,371.552 78.631 C 372.996 78.586,373.086 78.562,373.137 78.208 C 373.186 77.861,373.274 77.833,374.345 77.833 C 375.378 77.833,375.500 77.799,375.500 77.509 C 375.500 77.241,375.636 77.176,376.292 77.134 C 377.017 77.088,377.088 77.045,377.136 76.625 C 377.173 76.303,377.284 76.167,377.508 76.167 C 377.700 76.167,377.864 76.018,377.919 75.792 C 378.133 74.924,377.923 49.689,377.700 49.467 C 377.338 49.104,355.460 49.064,355.099 49.425 C 354.606 49.918,354.719 53.735,355.242 54.258 L 355.652 54.667 363.992 54.667 L 372.333 54.667 372.333 63.917 L 372.333 73.167 371.583 73.167 C 370.944 73.167,370.833 73.216,370.833 73.500 C 370.833 73.788,370.722 73.833,370.023 73.833 C 368.483 73.833,367.667 74.014,367.667 74.356 C 367.667 74.645,367.497 74.667,365.292 74.668 C 362.836 74.669,361.715 74.846,361.556 75.260 C 361.419 75.618,357.167 75.614,357.167 75.256 C 357.167 74.802,356.530 74.667,354.397 74.667 C 352.431 74.667,352.242 74.639,351.878 74.297 C 351.568 74.006,351.235 73.913,350.325 73.861 C 349.337 73.805,349.167 73.751,349.167 73.490 C 349.167 73.244,349.013 73.175,348.375 73.134 C 347.699 73.091,347.576 73.028,347.530 72.708 C 347.484 72.385,347.377 72.333,346.750 72.333 C 346.123 72.333,346.016 72.282,345.970 71.958 C 345.927 71.658,345.783 71.567,345.250 71.500 C 344.765 71.439,344.538 71.314,344.419 71.042 C 344.328 70.835,344.122 70.667,343.960 70.667 C 343.799 70.667,343.667 70.552,343.667 70.413 C 343.667 70.273,343.489 70.091,343.273 70.009 C 343.056 69.926,342.838 69.703,342.788 69.513 C 342.733 69.301,342.562 69.167,342.349 69.167 C 342.088 69.167,342.000 69.062,342.000 68.750 C 342.000 68.417,341.917 68.333,341.583 68.333 C 341.250 68.333,341.167 68.250,341.167 67.917 C 341.167 67.583,341.083 67.500,340.750 67.500 C 340.399 67.500,340.333 67.422,340.333 67.006 C 340.333 66.735,340.191 66.379,340.018 66.215 C 339.845 66.051,339.675 65.767,339.641 65.583 C 339.606 65.393,339.424 65.228,339.215 65.198 C 338.908 65.154,338.843 65.022,338.800 64.365 C 338.758 63.714,338.691 63.575,338.395 63.533 C 338.092 63.490,338.028 63.345,337.963 62.553 C 337.906 61.863,337.795 61.555,337.533 61.354 C 337.249 61.136,337.171 60.872,337.132 60.000 C 337.088 59.021,337.047 58.912,336.708 58.863 C 336.340 58.811,336.333 58.770,336.333 56.473 C 336.333 54.276,336.313 54.130,336.000 54.048 C 335.680 53.964,335.667 53.821,335.667 50.333 C 335.667 46.846,335.680 46.702,336.000 46.618 C 336.313 46.537,336.333 46.391,336.333 44.284 L 336.333 42.036 336.750 41.932 C 337.145 41.833,337.167 41.766,337.167 40.663 C 337.167 39.534,337.179 39.500,337.583 39.500 C 337.972 39.500,338.000 39.444,338.000 38.667 C 338.000 37.962,338.048 37.833,338.314 37.833 C 338.634 37.833,338.827 37.413,338.831 36.708 C 338.833 36.449,338.933 36.333,339.156 36.333 C 339.412 36.333,339.503 36.176,339.592 35.583 C 339.680 34.999,339.774 34.833,340.019 34.833 C 340.243 34.833,340.333 34.714,340.333 34.420 C 340.333 34.118,340.446 33.978,340.750 33.902 C 341.049 33.827,341.167 33.685,341.167 33.399 C 341.167 33.119,341.261 33.000,341.481 33.000 C 341.800 33.000,341.993 32.580,341.998 31.875 C 341.999 31.605,342.099 31.500,342.353 31.500 C 342.659 31.500,343.214 31.123,344.167 30.267 C 344.304 30.143,344.585 29.990,344.792 29.927 C 345.011 29.859,345.167 29.677,345.167 29.489 C 345.167 29.256,345.283 29.167,345.583 29.167 C 345.917 29.167,346.000 29.083,346.000 28.750 C 346.000 28.369,346.062 28.333,346.732 28.333 C 347.374 28.333,347.477 28.282,347.568 27.917 C 347.661 27.550,347.762 27.500,348.420 27.500 C 349.056 27.500,349.167 27.450,349.167 27.167 C 349.167 26.899,349.278 26.833,349.729 26.833 C 350.715 26.833,351.373 26.633,351.458 26.308 C 351.526 26.049,351.708 26.000,352.614 26.000 C 353.696 26.000,354.304 25.809,354.550 25.392 C 354.657 25.211,355.639 25.167,359.580 25.167 L 364.477 25.167 364.530 25.542 C 364.580 25.894,364.673 25.920,366.062 25.965 C 367.351 26.007,367.579 26.061,367.837 26.380 C 368.089 26.691,368.337 26.755,369.484 26.807 C 370.676 26.861,370.833 26.906,370.833 27.184 C 370.833 27.452,370.960 27.500,371.667 27.500 C 372.448 27.500,372.500 27.527,372.500 27.923 L 372.500 28.346 374.042 28.298 L 375.583 28.250 375.634 27.559 C 375.672 27.039,375.765 26.847,376.009 26.783 C 376.269 26.715,376.333 26.551,376.333 25.959 C 376.333 25.333,376.397 25.191,376.750 25.030 C 377.362 24.751,377.282 23.667,376.649 23.667 C 376.423 23.667,376.333 23.548,376.333 23.250 C 376.333 22.845,376.300 22.833,375.167 22.833 C 374.033 22.833,374.000 22.821,374.000 22.417 C 374.000 22.013,373.965 22.000,372.851 22.000 C 371.765 22.000,371.697 21.977,371.598 21.583 C 371.499 21.188,371.433 21.167,370.319 21.167 C 369.323 21.167,369.061 21.103,368.598 20.750 C 368.056 20.336,368.026 20.333,364.594 20.333 C 361.388 20.333,361.105 20.309,360.712 20.000 C 360.435 19.782,360.036 19.667,359.561 19.667 C 359.056 19.667,358.732 19.768,358.500 20.000 M395.667 49.583 L 395.667 79.500 397.833 79.500 L 400.000 79.500 400.000 49.583 L 400.000 19.667 397.833 19.667 L 395.667 19.667 395.667 49.583 M300.363 25.583 C 300.663 25.965,300.802 26.000,302.008 26.000 C 303.230 26.000,303.346 26.030,303.599 26.417 C 303.810 26.739,304.014 26.833,304.500 26.833 C 304.988 26.833,305.147 26.908,305.215 27.167 C 305.286 27.439,305.442 27.500,306.068 27.500 C 306.773 27.500,306.833 27.533,306.833 27.917 C 306.833 28.250,306.917 28.333,307.250 28.333 C 307.583 28.333,307.667 28.417,307.667 28.750 C 307.667 29.052,307.756 29.167,307.992 29.167 C 308.234 29.167,308.347 29.320,308.430 29.762 C 308.491 30.089,308.682 30.444,308.854 30.552 C 309.026 30.659,309.167 30.916,309.167 31.123 C 309.167 31.412,309.262 31.500,309.577 31.500 C 309.980 31.500,309.988 31.528,310.035 33.042 C 310.081 34.497,310.104 34.586,310.458 34.637 C 311.069 34.723,311.034 38.451,310.417 39.068 C 310.047 39.438,310.000 39.624,310.000 40.731 C 310.000 41.896,309.976 41.980,309.625 42.030 C 309.313 42.074,309.241 42.203,309.199 42.792 C 309.158 43.349,309.082 43.500,308.842 43.500 C 308.659 43.500,308.496 43.659,308.437 43.897 C 308.382 44.115,308.186 44.333,308.002 44.381 C 307.805 44.433,307.667 44.608,307.667 44.806 C 307.667 45.029,307.540 45.162,307.292 45.197 C 307.051 45.231,306.898 45.384,306.863 45.625 C 306.825 45.896,306.698 46.000,306.405 46.000 C 306.114 46.000,306.000 46.092,306.000 46.326 C 306.000 46.567,305.846 46.680,305.405 46.763 C 305.078 46.825,304.722 47.015,304.615 47.187 C 304.508 47.359,304.232 47.501,304.002 47.502 C 303.255 47.506,302.833 47.693,302.833 48.019 C 302.833 48.296,302.699 48.333,301.691 48.333 C 300.704 48.333,300.488 48.390,300.099 48.750 L 299.649 49.167 292.825 49.167 L 286.000 49.167 286.000 37.167 L 286.000 25.167 293.018 25.167 L 300.035 25.167 300.363 25.583 M74.000 40.667 C 74.000 41.044,74.173 41.094,74.467 40.800 C 74.760 40.506,74.711 40.333,74.333 40.333 C 74.111 40.333,74.000 40.444,74.000 40.667 M73.167 41.431 C 73.167 41.576,73.256 41.665,73.365 41.628 C 73.674 41.525,73.725 41.167,73.431 41.167 C 73.285 41.167,73.167 41.285,73.167 41.431 M72.333 42.250 C 72.333 42.387,72.399 42.500,72.480 42.500 C 72.560 42.500,72.719 42.387,72.833 42.250 C 73.007 42.041,72.983 42.000,72.687 42.000 C 72.484 42.000,72.333 42.106,72.333 42.250 M75.944 48.778 C 75.753 48.970,75.823 49.167,76.083 49.167 C 76.221 49.167,76.333 49.054,76.333 48.917 C 76.333 48.656,76.136 48.586,75.944 48.778 M73.866 50.745 C 73.564 51.052,73.389 51.348,73.479 51.403 C 73.620 51.491,73.999 51.067,74.399 50.375 C 74.584 50.055,74.466 50.137,73.866 50.745 M72.982 51.610 C 72.834 51.650,72.631 51.863,72.530 52.083 C 72.381 52.411,72.391 52.467,72.585 52.393 C 72.716 52.343,72.806 52.239,72.786 52.163 C 72.766 52.086,72.900 51.908,73.083 51.767 C 73.430 51.500,73.425 51.492,72.982 51.610 M71.720 52.816 C 71.669 53.009,71.562 53.167,71.481 53.167 C 71.400 53.167,71.333 53.253,71.333 53.359 C 71.333 53.470,71.470 53.428,71.656 53.260 C 71.834 53.099,72.066 53.021,72.172 53.087 C 72.297 53.164,72.345 53.100,72.308 52.909 C 72.223 52.471,71.826 52.409,71.720 52.816 " stroke="none" fill="#fcfcfc" fill-rule="evenodd"></path><path id="path1" d="M69.838 18.641 C 69.648 19.325,69.617 42.252,69.804 43.500 C 69.932 44.352,70.448 44.557,70.748 43.875 C 70.838 43.669,71.043 43.500,71.203 43.500 C 71.374 43.500,71.537 43.329,71.598 43.083 C 71.664 42.823,71.821 42.667,72.018 42.667 C 72.222 42.667,72.333 42.549,72.333 42.333 C 72.333 42.038,72.592 41.909,73.042 41.980 C 73.110 41.991,73.167 41.818,73.167 41.595 C 73.167 41.302,73.270 41.175,73.542 41.137 C 73.779 41.103,73.936 40.949,73.969 40.719 C 74.001 40.491,74.158 40.334,74.385 40.302 C 74.586 40.273,74.824 40.081,74.915 39.875 C 75.005 39.669,75.142 39.500,75.219 39.500 C 75.654 39.500,76.366 38.475,76.236 38.036 C 76.072 37.485,76.038 25.568,76.197 24.458 C 76.283 23.858,76.257 23.667,76.091 23.667 C 75.970 23.667,75.749 23.479,75.599 23.250 C 75.449 23.021,75.220 22.833,75.091 22.833 C 74.962 22.833,74.833 22.665,74.803 22.458 C 74.770 22.224,74.616 22.064,74.392 22.032 C 74.195 22.004,73.994 21.830,73.946 21.645 C 73.898 21.460,73.703 21.268,73.512 21.218 C 73.318 21.167,73.167 20.991,73.167 20.817 C 73.167 20.625,73.008 20.467,72.750 20.402 C 72.496 20.338,72.333 20.178,72.333 19.994 C 72.333 19.805,72.191 19.670,71.958 19.637 C 71.712 19.602,71.583 19.469,71.583 19.250 C 71.583 19.010,71.455 18.902,71.125 18.864 C 70.813 18.828,70.667 18.715,70.667 18.508 C 70.667 17.881,70.020 17.985,69.838 18.641 M75.417 49.833 C 75.509 49.983,75.291 50.072,74.958 50.020 C 74.890 50.009,74.833 50.117,74.833 50.260 C 74.833 50.403,74.768 50.479,74.689 50.430 C 74.609 50.381,74.372 50.566,74.161 50.841 C 73.951 51.115,73.528 51.495,73.221 51.684 C 72.915 51.874,72.707 52.097,72.759 52.181 C 72.811 52.265,72.775 52.333,72.680 52.333 C 72.584 52.333,72.459 52.520,72.402 52.749 C 72.345 52.977,72.224 53.119,72.134 53.063 C 72.045 53.008,71.679 53.276,71.321 53.659 C 70.964 54.042,70.594 54.308,70.498 54.249 C 70.403 54.190,70.346 54.204,70.371 54.279 C 70.435 54.472,69.718 55.162,69.588 55.033 C 69.530 54.975,69.527 55.044,69.582 55.187 C 69.693 55.476,69.269 55.917,69.026 55.766 C 68.940 55.713,68.756 55.844,68.616 56.057 C 68.403 56.382,68.400 56.444,68.598 56.444 C 68.818 56.444,68.905 56.270,68.849 55.946 C 68.836 55.870,68.903 55.857,68.999 55.916 C 69.094 55.975,69.129 56.093,69.076 56.178 C 69.023 56.264,69.062 56.333,69.161 56.333 C 69.611 56.333,69.663 57.588,69.676 68.797 C 69.692 81.618,69.698 81.726,70.377 81.778 C 70.730 81.805,70.833 81.740,70.833 81.490 C 70.833 81.312,70.943 81.167,71.077 81.167 C 71.331 81.167,71.719 80.608,71.570 80.459 C 71.523 80.412,71.675 80.325,71.909 80.267 C 72.179 80.199,72.333 80.044,72.333 79.842 C 72.333 79.638,72.469 79.504,72.708 79.470 C 72.946 79.436,73.102 79.283,73.135 79.052 C 73.168 78.825,73.325 78.668,73.552 78.635 C 73.783 78.602,73.936 78.446,73.970 78.208 C 74.004 77.965,74.138 77.833,74.349 77.833 C 74.545 77.833,74.739 77.664,74.837 77.407 C 74.926 77.172,75.066 77.021,75.147 77.071 C 75.229 77.122,75.388 77.051,75.502 76.915 C 75.615 76.778,75.646 76.667,75.570 76.667 C 75.495 76.667,75.527 76.573,75.642 76.458 C 75.756 76.344,75.940 76.250,76.050 76.250 C 76.178 76.250,76.229 76.041,76.192 75.666 C 76.161 75.346,76.086 69.533,76.026 62.750 C 75.919 50.651,75.872 49.667,75.401 49.667 C 75.353 49.667,75.360 49.742,75.417 49.833 " stroke="none" fill="#bcf4dc" fill-rule="evenodd"></path><path id="path2" d="M67.170 15.746 C 66.941 16.022,66.933 16.693,66.974 32.375 L 67.011 46.667 67.604 46.667 C 68.052 46.667,68.219 46.587,68.283 46.343 C 68.329 46.165,68.528 45.996,68.725 45.968 C 68.949 45.936,69.103 45.776,69.137 45.542 C 69.176 45.266,69.301 45.167,69.611 45.167 C 70.032 45.167,70.033 45.165,69.891 44.125 C 69.759 43.150,69.728 19.371,69.857 17.917 C 69.909 17.336,69.870 17.243,69.552 17.198 C 69.325 17.166,69.168 17.009,69.135 16.781 C 69.102 16.551,68.946 16.397,68.708 16.363 C 68.477 16.330,68.333 16.194,68.333 16.007 C 68.333 15.650,67.420 15.445,67.170 15.746 M70.365 18.103 C 70.520 18.149,70.682 18.351,70.725 18.552 C 70.792 18.858,70.800 18.849,70.777 18.502 C 70.759 18.220,70.643 18.076,70.417 18.053 C 70.177 18.029,70.162 18.043,70.365 18.103 M29.208 20.209 C 28.819 20.473,28.500 20.796,28.500 20.928 C 28.500 21.071,28.334 21.167,28.083 21.167 C 27.753 21.167,27.667 21.251,27.667 21.572 C 27.667 21.865,27.563 21.992,27.292 22.030 C 27.051 22.064,26.898 22.217,26.863 22.458 C 26.831 22.686,26.694 22.833,26.515 22.833 C 26.353 22.833,26.135 23.021,26.030 23.250 C 25.919 23.494,25.701 23.667,25.504 23.667 C 25.278 23.667,25.167 23.777,25.167 24.000 C 25.167 24.222,25.056 24.333,24.833 24.333 C 24.618 24.333,24.500 24.444,24.500 24.646 C 24.500 24.983,24.187 25.322,23.917 25.277 C 23.825 25.262,23.727 25.414,23.698 25.615 C 23.666 25.842,23.509 25.999,23.281 26.031 C 23.037 26.066,22.898 26.221,22.861 26.500 C 22.830 26.729,22.725 26.992,22.628 27.083 C 22.506 27.199,22.492 27.173,22.583 27.000 C 22.699 26.782,22.686 26.781,22.483 26.992 C 22.355 27.126,22.137 27.337,22.000 27.463 C 21.863 27.589,21.835 27.649,21.939 27.598 C 22.586 27.277,22.583 27.178,22.583 49.901 C 22.583 71.251,22.571 72.138,22.272 72.355 C 22.192 72.413,22.279 72.612,22.464 72.797 C 22.649 72.982,22.850 73.291,22.911 73.484 C 22.974 73.680,23.164 73.833,23.345 73.833 C 23.577 73.833,23.667 73.949,23.667 74.250 C 23.667 74.583,23.750 74.667,24.083 74.667 C 24.312 74.667,24.491 74.723,24.480 74.792 C 24.411 75.228,24.548 75.484,24.875 75.530 C 25.123 75.565,25.234 75.681,25.202 75.870 C 25.171 76.057,25.297 76.193,25.561 76.259 C 25.785 76.316,26.008 76.511,26.055 76.693 C 26.103 76.876,26.291 77.064,26.472 77.111 C 26.654 77.159,26.840 77.341,26.886 77.515 C 26.934 77.700,27.115 77.833,27.318 77.833 C 27.561 77.833,27.667 77.939,27.667 78.182 C 27.667 78.392,27.801 78.566,28.002 78.619 C 28.186 78.667,28.382 78.885,28.437 79.103 C 28.498 79.346,28.658 79.500,28.851 79.500 C 29.035 79.500,29.167 79.616,29.167 79.778 C 29.167 79.931,29.216 80.006,29.276 79.946 C 29.337 79.886,29.492 79.925,29.622 80.032 C 29.939 80.295,30.159 79.946,30.168 79.167 C 30.171 78.846,30.191 73.317,30.212 66.881 C 30.246 56.411,30.278 55.151,30.517 54.912 C 30.785 54.643,30.760 53.756,30.488 53.924 C 30.350 54.009,29.771 53.078,29.757 52.750 C 29.753 52.658,29.663 52.583,29.557 52.583 C 29.450 52.583,28.986 52.190,28.524 51.708 C 28.063 51.227,27.606 50.833,27.509 50.833 C 27.413 50.833,27.333 50.683,27.333 50.500 C 27.333 50.315,27.222 50.167,27.083 50.167 C 26.695 50.167,26.778 49.998,27.542 49.237 C 29.157 47.627,29.821 46.877,29.719 46.775 C 29.660 46.715,29.699 46.667,29.806 46.667 C 29.913 46.667,30.000 46.525,30.000 46.353 C 30.000 46.169,30.155 45.996,30.375 45.936 C 30.664 45.857,30.698 45.800,30.523 45.687 C 30.364 45.584,30.354 45.521,30.489 45.476 C 30.629 45.429,30.611 45.241,30.424 44.794 C 30.200 44.258,30.165 42.614,30.155 32.214 C 30.142 18.843,30.197 19.540,29.208 20.209 M76.225 24.530 C 75.759 25.252,76.019 38.500,76.499 38.500 C 76.641 38.500,77.090 37.940,77.220 37.602 C 77.283 37.437,77.485 37.263,77.668 37.215 C 77.971 37.135,78.093 36.848,78.006 36.417 C 77.987 36.325,78.026 36.304,78.091 36.369 C 78.672 36.950,78.777 36.240,78.705 32.218 C 78.667 30.036,78.700 27.950,78.779 27.583 C 79.008 26.520,78.885 26.000,78.406 26.000 C 78.112 26.000,78.000 25.908,78.000 25.670 C 78.000 25.457,77.852 25.303,77.583 25.235 C 77.323 25.170,77.167 25.013,77.167 24.815 C 77.167 24.642,77.098 24.500,77.014 24.500 C 76.929 24.500,76.750 24.457,76.614 24.405 C 76.478 24.353,76.303 24.409,76.225 24.530 M78.292 46.868 C 78.246 46.986,78.218 47.158,78.230 47.248 C 78.241 47.339,78.025 47.452,77.750 47.499 C 77.397 47.560,77.235 47.692,77.198 47.949 C 77.166 48.175,77.008 48.332,76.781 48.365 C 76.517 48.402,76.417 48.532,76.417 48.833 C 76.417 49.153,76.339 49.240,76.083 49.207 C 75.865 49.178,75.684 49.308,75.557 49.582 C 75.451 49.812,75.425 49.963,75.498 49.918 C 75.859 49.695,75.922 51.309,76.000 62.750 C 76.046 69.533,76.144 75.177,76.218 75.292 C 76.479 75.695,77.167 75.544,77.167 75.083 C 77.167 74.750,77.250 74.667,77.583 74.667 C 77.917 74.667,78.000 74.583,78.000 74.250 C 78.000 73.917,78.083 73.833,78.417 73.833 C 78.925 73.833,78.973 73.570,78.763 71.917 C 78.716 71.550,78.674 65.974,78.668 59.525 C 78.659 49.307,78.626 47.768,78.407 47.549 C 78.211 47.354,78.199 47.246,78.351 47.062 C 78.459 46.932,78.509 46.786,78.461 46.739 C 78.413 46.691,78.337 46.749,78.292 46.868 M69.542 55.110 C 69.427 55.157,69.333 55.293,69.333 55.413 C 69.333 55.533,69.220 55.674,69.082 55.728 C 68.943 55.781,68.840 55.882,68.852 55.954 C 68.898 56.237,68.827 56.499,68.708 56.480 C 68.268 56.411,68.015 56.562,67.831 57.005 C 67.716 57.283,67.583 57.471,67.535 57.423 C 67.399 57.288,66.992 57.686,67.095 57.852 C 67.145 57.933,67.115 58.000,67.028 58.000 C 66.941 58.000,66.822 58.191,66.763 58.423 C 66.699 58.680,66.583 58.801,66.469 58.731 C 66.354 58.660,66.328 58.690,66.402 58.810 C 66.469 58.918,66.585 58.967,66.661 58.920 C 66.930 58.754,66.968 60.384,66.973 72.053 C 66.976 80.113,67.033 83.923,67.154 84.068 C 67.251 84.185,67.275 84.342,67.207 84.417 C 67.139 84.492,67.196 84.486,67.333 84.404 C 67.599 84.246,67.686 84.221,68.083 84.188 C 68.221 84.176,68.333 84.017,68.333 83.833 C 68.333 83.589,68.444 83.500,68.750 83.500 C 69.080 83.500,69.167 83.416,69.167 83.095 C 69.167 82.802,69.270 82.675,69.542 82.637 C 69.862 82.591,69.909 82.498,69.863 82.000 C 69.833 81.679,69.776 77.404,69.737 72.500 C 69.608 56.386,69.615 56.662,69.317 56.445 C 68.915 56.151,68.887 55.993,69.206 55.814 C 69.440 55.684,69.970 54.965,69.798 55.013 C 69.771 55.020,69.656 55.064,69.542 55.110 M79.283 72.557 C 79.236 72.680,79.264 72.886,79.346 73.015 C 79.510 73.274,79.525 73.254,79.582 72.708 C 79.625 72.300,79.421 72.197,79.283 72.557 " stroke="none" fill="#74f4b4" fill-rule="evenodd"></path><path id="path3" d="M65.535 14.147 C 65.164 14.987,65.254 48.285,65.628 48.251 C 66.205 48.200,66.667 47.972,66.667 47.739 C 66.667 47.607,66.802 47.500,66.967 47.500 C 67.318 47.500,67.667 47.193,67.667 46.883 C 67.667 46.764,67.519 46.667,67.339 46.667 C 67.015 46.667,67.010 46.464,66.974 32.375 C 66.931 15.770,66.926 16.024,67.277 15.637 C 67.603 15.276,67.457 14.833,67.010 14.833 C 66.797 14.833,66.709 14.751,66.765 14.605 C 66.842 14.405,66.505 14.140,66.119 14.098 C 66.047 14.090,65.932 13.993,65.864 13.883 C 65.782 13.751,65.672 13.839,65.535 14.147 M31.058 18.458 C 31.006 18.665,30.852 18.833,30.715 18.833 C 30.579 18.833,30.252 19.064,29.988 19.346 C 29.725 19.628,29.433 19.812,29.340 19.754 C 29.239 19.692,29.212 19.757,29.273 19.915 C 29.366 20.158,29.400 20.158,29.666 19.917 C 30.149 19.480,30.162 19.803,30.164 32.297 C 30.166 42.556,30.201 44.260,30.420 44.785 C 30.605 45.227,30.623 45.424,30.485 45.509 C 30.351 45.592,30.361 45.653,30.523 45.719 C 30.678 45.782,30.631 45.847,30.375 45.925 C 30.169 45.988,30.000 46.148,30.000 46.282 C 30.000 46.650,30.559 46.470,30.748 46.041 C 30.838 45.835,30.999 45.667,31.105 45.667 C 31.211 45.667,31.345 45.476,31.403 45.243 C 31.462 45.010,31.583 44.865,31.672 44.920 C 31.761 44.975,31.833 44.906,31.833 44.768 C 31.833 44.630,31.951 44.451,32.094 44.371 C 32.237 44.291,32.370 44.118,32.390 43.988 C 32.410 43.857,32.492 43.645,32.572 43.516 C 32.672 43.356,32.658 43.319,32.526 43.401 C 32.371 43.496,32.173 24.144,32.272 18.583 C 32.284 17.920,31.221 17.810,31.058 18.458 M22.102 27.095 C 22.052 27.226,22.083 27.333,22.172 27.333 C 22.261 27.333,22.333 27.254,22.333 27.157 C 22.333 27.060,22.403 27.023,22.488 27.076 C 22.574 27.129,22.681 27.111,22.727 27.037 C 22.773 26.963,22.671 26.892,22.502 26.879 C 22.332 26.867,22.152 26.963,22.102 27.095 M78.885 27.042 C 78.389 27.808,78.672 35.750,79.197 35.790 C 79.517 35.814,79.520 35.802,79.244 35.600 C 79.013 35.431,78.996 35.355,79.167 35.250 C 79.311 35.161,79.345 35.180,79.266 35.308 C 79.080 35.609,79.411 35.533,79.815 35.183 C 80.077 34.956,80.119 34.841,79.965 34.779 C 79.828 34.724,79.856 34.688,80.042 34.680 C 80.209 34.672,80.333 34.536,80.333 34.359 C 80.333 34.190,80.496 33.909,80.695 33.734 C 80.894 33.560,80.995 33.522,80.920 33.651 C 80.827 33.809,80.844 33.846,80.974 33.766 C 81.270 33.583,81.220 32.944,80.918 33.060 C 80.414 33.253,80.220 29.780,80.708 29.292 C 80.869 29.131,81.000 29.084,81.000 29.187 C 81.000 29.316,81.077 29.310,81.250 29.167 C 81.387 29.053,81.499 28.875,81.497 28.771 C 81.496 28.646,81.452 28.651,81.365 28.788 C 81.268 28.940,81.161 28.907,80.952 28.663 C 80.766 28.446,80.740 28.333,80.874 28.333 C 80.986 28.333,80.725 27.996,80.295 27.583 C 79.494 26.816,79.123 26.674,78.885 27.042 M21.254 27.959 C 21.201 28.171,20.988 28.422,20.782 28.516 C 20.424 28.679,20.412 28.747,20.527 29.885 C 20.679 31.394,20.672 68.886,20.520 70.279 C 20.458 70.845,20.447 71.283,20.497 71.252 C 20.644 71.161,21.095 71.560,21.220 71.891 C 21.283 72.060,21.478 72.236,21.652 72.281 C 21.826 72.327,22.007 72.507,22.052 72.682 C 22.098 72.857,22.220 73.000,22.324 73.000 C 22.460 73.000,22.463 72.908,22.333 72.667 C 22.235 72.483,22.220 72.333,22.300 72.333 C 22.649 72.333,22.728 28.162,22.380 27.813 C 22.013 27.447,21.362 27.531,21.254 27.959 M78.068 36.596 C 78.086 36.721,78.160 36.882,78.231 36.954 C 78.303 37.025,78.336 36.971,78.306 36.833 C 78.272 36.682,78.348 36.605,78.500 36.639 C 78.637 36.669,78.692 36.636,78.620 36.565 C 78.394 36.338,78.033 36.359,78.068 36.596 M77.328 37.423 C 77.213 37.561,77.167 37.723,77.226 37.782 C 77.285 37.841,77.334 37.783,77.336 37.653 C 77.338 37.460,77.364 37.457,77.479 37.639 C 77.593 37.819,77.639 37.812,77.720 37.603 C 77.857 37.243,77.582 37.117,77.328 37.423 M75.125 39.861 C 74.903 40.094,74.889 40.167,75.066 40.167 C 75.193 40.167,75.345 40.043,75.403 39.893 C 75.549 39.513,75.467 39.503,75.125 39.861 M80.123 45.782 C 79.961 45.824,79.861 45.909,79.899 45.972 C 79.938 46.034,79.732 46.084,79.443 46.084 C 79.040 46.083,78.905 46.163,78.868 46.423 C 78.841 46.609,78.675 46.852,78.499 46.962 C 78.224 47.134,78.193 47.122,78.283 46.873 C 78.340 46.713,78.335 46.629,78.271 46.686 C 78.208 46.742,78.123 46.959,78.083 47.167 C 78.043 47.375,78.054 47.502,78.106 47.449 C 78.610 46.945,78.648 47.765,78.662 59.500 C 78.670 65.962,78.720 71.550,78.774 71.917 C 78.828 72.283,78.871 72.830,78.869 73.132 C 78.866 73.590,78.905 73.648,79.106 73.481 C 79.238 73.372,79.334 73.163,79.320 73.016 C 79.275 72.536,79.331 72.333,79.510 72.333 C 79.607 72.333,79.643 72.403,79.590 72.488 C 79.538 72.574,79.565 72.687,79.651 72.740 C 79.844 72.859,80.530 72.016,80.405 71.814 C 80.355 71.733,80.365 71.584,80.428 71.482 C 80.507 71.354,80.585 71.366,80.685 71.524 C 80.795 71.697,80.829 71.678,80.831 71.441 C 80.832 71.244,80.919 71.164,81.068 71.221 C 81.197 71.270,81.440 71.153,81.609 70.960 C 81.778 70.767,81.820 70.666,81.701 70.736 C 81.581 70.806,81.303 70.743,81.076 70.594 C 80.697 70.346,80.667 70.347,80.667 70.607 C 80.667 70.762,80.627 70.849,80.579 70.801 C 80.531 70.753,80.493 65.078,80.495 58.190 C 80.496 51.302,80.480 45.675,80.457 45.686 C 80.435 45.697,80.284 45.740,80.123 45.782 M29.725 46.793 C 29.786 46.891,29.749 47.000,29.643 47.036 C 29.537 47.071,29.480 47.191,29.517 47.302 C 29.560 47.430,29.659 47.384,29.789 47.176 C 29.940 46.935,29.944 46.818,29.804 46.732 C 29.694 46.664,29.661 46.689,29.725 46.793 M76.778 47.944 C 76.586 48.136,76.656 48.333,76.917 48.333 C 77.054 48.333,77.167 48.221,77.167 48.083 C 77.167 47.823,76.970 47.753,76.778 47.944 M75.083 49.500 C 74.906 49.787,75.163 50.016,75.408 49.790 C 75.637 49.579,75.597 49.333,75.333 49.333 C 75.252 49.333,75.140 49.408,75.083 49.500 M30.169 53.671 C 30.269 53.857,30.413 53.971,30.489 53.923 C 30.760 53.756,30.785 54.644,30.517 54.912 C 30.278 55.151,30.246 56.454,30.215 67.425 C 30.194 74.633,30.116 79.787,30.024 79.950 C 29.805 80.342,30.120 80.952,30.604 81.074 C 30.822 81.128,31.000 81.279,31.000 81.409 C 31.000 81.731,31.534 81.874,32.018 81.681 C 32.237 81.593,32.314 81.516,32.188 81.511 C 32.017 81.503,32.006 81.444,32.142 81.280 C 32.271 81.124,32.327 77.516,32.332 69.071 C 32.336 62.478,32.377 56.875,32.423 56.621 C 32.470 56.367,32.415 55.992,32.301 55.788 C 32.188 55.584,32.089 55.342,32.082 55.250 C 32.074 55.158,31.976 55.103,31.864 55.126 C 31.675 55.166,31.247 54.404,31.304 54.131 C 31.318 54.066,31.218 54.055,31.081 54.107 C 30.925 54.167,30.833 54.103,30.833 53.934 C 30.833 53.787,30.721 53.667,30.583 53.667 C 30.446 53.667,30.333 53.592,30.333 53.500 C 30.333 53.408,30.256 53.333,30.161 53.333 C 30.045 53.333,30.047 53.444,30.169 53.671 M66.500 58.351 C 66.500 58.453,66.379 58.489,66.231 58.433 C 66.041 58.359,65.990 58.401,66.058 58.577 C 66.141 58.795,65.743 59.403,65.020 60.159 C 64.860 60.327,64.847 60.421,64.978 60.465 C 65.082 60.499,65.167 60.601,65.167 60.690 C 65.167 60.780,65.073 60.806,64.958 60.747 C 64.844 60.689,64.879 60.748,65.037 60.878 C 65.305 61.097,65.325 61.966,65.331 73.215 C 65.335 79.871,65.377 85.420,65.425 85.545 C 65.559 85.893,66.647 85.824,66.763 85.460 C 66.814 85.298,66.991 85.094,67.157 85.005 C 67.323 84.916,67.499 84.687,67.549 84.496 C 67.626 84.204,67.601 84.181,67.394 84.352 C 67.259 84.464,67.164 84.487,67.184 84.403 C 67.203 84.319,67.168 84.134,67.105 83.991 C 67.041 83.849,66.961 78.149,66.927 71.325 C 66.892 64.500,66.849 58.748,66.831 58.542 C 66.798 58.169,66.500 57.998,66.500 58.351 " stroke="none" fill="#24ec8c" fill-rule="evenodd"></path><path id="path4" d="M49.333 0.250 C 49.333 0.393,49.183 0.500,48.984 0.500 C 48.776 0.500,48.600 0.634,48.548 0.833 C 48.500 1.017,48.321 1.167,48.150 1.167 C 47.965 1.167,47.801 1.321,47.744 1.549 C 47.691 1.760,47.494 2.028,47.306 2.145 C 47.049 2.306,46.996 2.308,47.092 2.153 C 47.173 2.022,47.149 1.991,47.026 2.067 C 46.920 2.133,46.833 2.332,46.833 2.510 C 46.833 2.721,46.719 2.833,46.503 2.833 C 46.290 2.833,46.136 2.981,46.068 3.250 C 46.011 3.479,45.897 3.676,45.815 3.688 C 45.734 3.699,45.573 3.719,45.458 3.731 C 45.343 3.744,45.273 3.919,45.302 4.126 C 45.337 4.376,45.282 4.471,45.135 4.417 C 44.821 4.302,44.487 4.560,44.459 4.941 C 44.442 5.157,44.316 5.266,44.092 5.260 C 43.860 5.253,43.733 5.371,43.697 5.625 C 43.658 5.898,43.532 6.000,43.231 6.000 C 42.998 6.000,42.830 6.091,42.846 6.208 C 42.908 6.691,42.810 6.833,42.417 6.833 C 42.187 6.833,42.009 6.890,42.020 6.958 C 42.091 7.408,41.962 7.667,41.667 7.667 C 41.444 7.667,41.333 7.778,41.333 8.000 C 41.333 8.301,41.157 8.413,40.785 8.351 C 40.712 8.339,40.562 8.538,40.451 8.794 C 40.319 9.098,40.149 9.239,39.958 9.201 C 39.741 9.157,39.667 9.252,39.667 9.571 C 39.667 9.917,39.586 10.000,39.250 10.000 C 38.917 10.000,38.833 10.083,38.833 10.417 C 38.833 10.750,38.750 10.833,38.417 10.833 C 38.083 10.833,38.000 10.917,38.000 11.250 C 38.000 11.633,37.779 11.767,37.284 11.684 C 37.211 11.671,37.163 11.756,37.179 11.872 C 37.241 12.347,37.151 12.521,36.875 12.466 C 36.684 12.428,36.514 12.568,36.384 12.869 C 36.248 13.181,36.101 13.298,35.925 13.230 C 35.732 13.156,35.667 13.241,35.667 13.566 C 35.667 13.920,35.588 14.000,35.243 14.000 C 35.000 14.000,34.830 14.089,34.846 14.208 C 34.905 14.664,34.817 14.812,34.458 14.863 C 34.217 14.898,34.064 15.051,34.030 15.292 C 33.992 15.556,33.864 15.667,33.593 15.667 C 33.128 15.667,33.094 16.244,33.532 16.729 C 33.791 17.017,33.815 18.034,33.826 29.313 C 33.837 39.955,33.872 41.608,34.086 41.768 C 34.376 41.985,34.423 42.242,34.141 42.067 C 34.024 41.995,33.994 42.022,34.063 42.134 C 34.127 42.237,33.982 42.447,33.735 42.608 C 33.330 42.874,33.319 42.908,33.605 43.021 C 33.896 43.135,33.894 43.144,33.575 43.155 C 33.387 43.161,33.143 43.257,33.033 43.367 C 32.780 43.620,32.763 44.396,33.015 44.241 C 33.114 44.179,33.160 43.992,33.116 43.824 C 33.055 43.592,33.143 43.506,33.476 43.468 C 33.782 43.432,33.933 43.305,33.969 43.052 C 34.001 42.825,34.158 42.668,34.385 42.635 C 34.606 42.604,34.742 42.473,34.729 42.304 C 34.717 42.146,34.866 41.986,35.075 41.934 C 35.278 41.883,35.529 41.652,35.635 41.420 C 35.741 41.188,35.920 41.017,36.035 41.041 C 36.149 41.064,36.268 40.915,36.299 40.708 C 36.336 40.467,36.473 40.333,36.682 40.333 C 36.907 40.333,37.038 40.187,37.102 39.863 C 37.172 39.516,37.291 39.396,37.556 39.405 C 37.808 39.413,37.933 39.303,37.970 39.042 C 38.009 38.768,38.135 38.667,38.436 38.667 C 38.669 38.667,38.836 38.576,38.821 38.458 C 38.765 38.029,38.839 37.817,39.007 37.921 C 39.249 38.070,39.701 37.663,39.596 37.390 C 39.521 37.193,39.800 37.082,40.208 37.147 C 40.277 37.158,40.333 36.979,40.333 36.750 C 40.333 36.415,40.416 36.333,40.757 36.333 C 41.000 36.333,41.170 36.244,41.154 36.125 C 41.092 35.643,41.190 35.500,41.583 35.500 C 41.919 35.500,42.000 35.417,42.000 35.076 C 42.000 34.834,42.089 34.664,42.208 34.679 C 42.580 34.727,42.834 34.670,42.814 34.542 C 42.757 34.182,42.870 34.018,43.208 33.970 C 43.454 33.935,43.583 33.802,43.583 33.583 C 43.583 33.365,43.712 33.232,43.958 33.197 C 44.230 33.158,44.333 33.032,44.333 32.738 C 44.333 32.417,44.420 32.333,44.750 32.333 C 45.083 32.333,45.167 32.250,45.167 31.917 C 45.167 31.583,45.250 31.500,45.583 31.500 C 45.884 31.500,46.000 31.410,46.000 31.178 C 46.000 30.971,46.134 30.837,46.375 30.803 C 46.612 30.770,46.769 30.616,46.802 30.385 C 46.834 30.158,46.991 30.001,47.219 29.969 C 47.446 29.936,47.584 29.798,47.584 29.602 C 47.585 29.429,47.753 29.225,47.959 29.149 C 48.173 29.070,48.333 28.870,48.333 28.684 C 48.333 28.471,48.465 28.338,48.708 28.303 C 48.949 28.269,49.102 28.116,49.137 27.875 C 49.175 27.604,49.302 27.500,49.595 27.500 C 49.913 27.500,50.000 27.413,50.000 27.093 C 50.000 26.776,50.073 26.700,50.333 26.750 C 50.517 26.785,50.667 26.734,50.667 26.637 C 50.667 26.518,50.744 26.524,50.899 26.652 C 51.027 26.758,51.231 26.824,51.353 26.798 C 51.476 26.771,51.601 26.919,51.633 27.125 C 51.668 27.356,51.807 27.500,51.994 27.500 C 52.176 27.500,52.338 27.662,52.399 27.905 C 52.462 28.158,52.641 28.330,52.875 28.363 C 53.121 28.398,53.250 28.531,53.250 28.750 C 53.250 28.964,53.378 29.102,53.609 29.135 C 53.828 29.166,54.009 29.345,54.071 29.593 C 54.136 29.853,54.292 30.000,54.503 30.000 C 54.722 30.000,54.833 30.112,54.833 30.333 C 54.833 30.651,54.994 30.739,55.458 30.679 C 55.729 30.644,55.728 31.296,55.457 31.567 C 55.341 31.682,55.143 31.742,55.015 31.699 C 54.850 31.644,54.809 31.722,54.873 31.968 C 54.946 32.247,54.878 32.325,54.524 32.366 C 54.281 32.394,54.074 32.510,54.063 32.625 C 54.051 32.740,54.032 32.903,54.021 32.988 C 54.009 33.074,53.831 33.168,53.625 33.197 C 53.348 33.237,53.260 33.349,53.290 33.626 C 53.321 33.924,53.245 34.000,52.915 34.000 C 52.609 34.000,52.500 34.089,52.500 34.337 C 52.500 34.544,52.338 34.736,52.083 34.833 C 51.822 34.933,51.667 35.122,51.667 35.340 C 51.667 35.611,51.594 35.666,51.339 35.585 C 51.085 35.504,50.987 35.577,50.904 35.907 C 50.835 36.182,50.682 36.333,50.472 36.333 C 50.293 36.333,50.193 36.408,50.250 36.500 C 50.307 36.592,50.274 36.667,50.177 36.667 C 50.079 36.667,50.000 36.771,50.000 36.899 C 50.000 37.026,49.819 37.176,49.599 37.231 C 49.297 37.307,49.219 37.415,49.285 37.666 C 49.355 37.935,49.290 38.000,48.954 38.000 C 48.647 38.000,48.508 38.111,48.432 38.417 C 48.364 38.686,48.210 38.833,47.997 38.833 C 47.756 38.833,47.667 38.946,47.667 39.248 C 47.667 39.575,47.590 39.654,47.304 39.623 C 47.038 39.594,46.913 39.696,46.838 40.000 C 46.781 40.229,46.645 40.426,46.534 40.437 C 46.424 40.449,46.258 40.468,46.167 40.479 C 46.075 40.491,46.000 40.645,46.000 40.822 C 46.000 41.029,45.866 41.163,45.625 41.197 C 45.419 41.226,45.241 41.344,45.229 41.458 C 45.218 41.573,45.199 41.742,45.188 41.833 C 45.176 41.925,45.018 42.000,44.837 42.000 C 44.623 42.000,44.469 42.148,44.402 42.417 C 44.338 42.670,44.178 42.833,43.994 42.833 C 43.805 42.833,43.670 42.976,43.637 43.208 C 43.602 43.449,43.449 43.602,43.208 43.637 C 42.967 43.671,42.833 43.805,42.833 44.012 C 42.833 44.244,42.717 44.333,42.417 44.333 C 42.087 44.333,42.000 44.417,42.000 44.738 C 42.000 45.032,41.896 45.158,41.625 45.197 C 41.355 45.235,41.256 45.355,41.270 45.625 C 41.286 45.918,41.200 46.000,40.879 46.000 C 40.616 46.000,40.439 46.114,40.386 46.318 C 40.340 46.493,40.159 46.673,39.985 46.719 C 39.800 46.767,39.667 46.948,39.667 47.151 C 39.667 47.483,39.510 47.573,39.042 47.512 C 38.923 47.497,38.833 47.667,38.833 47.909 C 38.833 48.250,38.752 48.333,38.417 48.333 C 38.087 48.333,38.000 48.417,38.000 48.738 C 38.000 49.032,37.896 49.158,37.625 49.197 C 37.307 49.242,37.250 49.352,37.250 49.917 C 37.250 50.481,37.307 50.591,37.625 50.637 C 37.896 50.675,38.000 50.802,38.000 51.095 C 38.000 51.416,38.087 51.500,38.417 51.500 C 38.750 51.500,38.833 51.583,38.833 51.917 C 38.833 52.250,38.917 52.333,39.250 52.333 C 39.583 52.333,39.667 52.417,39.667 52.750 C 39.667 53.078,39.751 53.167,40.065 53.167 C 40.329 53.167,40.455 53.257,40.440 53.435 C 40.427 53.583,40.567 53.789,40.750 53.894 C 41.164 54.129,41.337 54.360,41.229 54.534 C 41.184 54.607,41.339 54.667,41.573 54.667 C 41.917 54.667,42.000 54.747,42.000 55.083 C 42.000 55.417,42.083 55.500,42.417 55.500 C 42.750 55.500,42.833 55.583,42.833 55.917 C 42.833 56.250,42.917 56.333,43.250 56.333 C 43.562 56.333,43.667 56.421,43.667 56.682 C 43.667 56.883,43.799 57.066,43.980 57.113 C 44.152 57.158,44.377 57.380,44.480 57.607 C 44.584 57.833,44.734 57.978,44.815 57.928 C 45.018 57.803,45.387 58.278,45.255 58.493 C 45.191 58.596,45.320 58.667,45.573 58.667 C 45.917 58.667,46.000 58.747,46.000 59.083 C 46.000 59.417,46.083 59.500,46.417 59.500 C 46.753 59.500,46.833 59.583,46.833 59.927 C 46.833 60.274,46.903 60.345,47.208 60.302 C 47.495 60.262,47.597 60.343,47.639 60.644 C 47.671 60.868,47.839 61.076,48.027 61.125 C 48.210 61.173,48.428 61.393,48.512 61.614 C 48.607 61.865,48.774 61.997,48.957 61.966 C 49.155 61.933,49.250 62.024,49.250 62.250 C 49.250 62.487,49.378 62.598,49.691 62.634 C 49.961 62.666,50.166 62.811,50.217 63.009 C 50.338 63.470,51.270 63.462,51.417 63.000 C 51.484 62.787,51.669 62.667,51.928 62.667 C 52.222 62.667,52.333 62.575,52.333 62.333 C 52.333 62.150,52.408 61.991,52.500 61.979 C 52.592 61.968,52.760 61.949,52.875 61.938 C 52.990 61.926,53.107 61.753,53.135 61.552 C 53.168 61.325,53.325 61.168,53.552 61.135 C 53.783 61.102,53.936 60.946,53.970 60.708 C 54.008 60.437,54.135 60.333,54.428 60.333 C 54.651 60.333,54.824 60.277,54.814 60.208 C 54.745 59.772,54.881 59.516,55.208 59.470 C 55.478 59.432,55.578 59.311,55.563 59.042 C 55.548 58.753,55.634 58.667,55.938 58.667 C 56.217 58.667,56.333 58.572,56.333 58.345 C 56.333 58.138,56.467 58.004,56.708 57.970 C 56.946 57.936,57.102 57.783,57.135 57.552 C 57.168 57.325,57.325 57.168,57.552 57.135 C 57.783 57.102,57.936 56.946,57.970 56.708 C 58.008 56.437,58.135 56.333,58.428 56.333 C 58.749 56.333,58.833 56.247,58.833 55.917 C 58.833 55.578,58.915 55.500,59.269 55.500 C 59.627 55.500,59.689 55.439,59.616 55.158 C 59.550 54.904,59.631 54.775,59.930 54.662 C 60.152 54.577,60.333 54.394,60.333 54.254 C 60.333 54.033,60.636 53.916,61.042 53.980 C 61.110 53.991,61.167 53.813,61.167 53.583 C 61.167 53.250,61.250 53.167,61.583 53.167 C 61.917 53.167,62.000 53.083,62.000 52.750 C 62.000 52.417,62.083 52.333,62.417 52.333 C 62.750 52.333,62.833 52.250,62.833 51.917 C 62.833 51.583,62.917 51.500,63.250 51.500 C 63.479 51.500,63.658 51.444,63.647 51.375 C 63.576 50.925,63.705 50.667,64.000 50.667 C 64.217 50.667,64.333 50.556,64.333 50.347 C 64.333 50.172,64.427 49.990,64.542 49.944 C 64.656 49.897,64.594 49.854,64.403 49.846 C 64.212 49.839,64.032 49.740,64.004 49.625 C 63.863 49.062,63.843 14.074,63.983 13.568 C 64.085 13.198,64.082 13.000,63.975 13.000 C 63.884 13.000,63.922 12.887,64.060 12.750 C 64.398 12.411,64.603 12.435,64.893 12.850 C 65.243 13.350,66.000 13.731,66.000 13.407 C 66.000 13.262,65.835 13.167,65.583 13.167 C 65.247 13.167,65.167 13.084,65.167 12.740 C 65.167 12.506,65.098 12.356,65.015 12.407 C 64.751 12.571,64.333 12.310,64.333 11.982 C 64.333 11.778,64.216 11.667,64.000 11.667 C 63.817 11.667,63.657 11.592,63.646 11.500 C 63.634 11.408,63.616 11.240,63.604 11.125 C 63.593 11.010,63.415 10.893,63.208 10.863 C 62.937 10.825,62.833 10.698,62.833 10.405 C 62.833 10.084,62.747 10.000,62.417 10.000 C 62.083 10.000,62.000 9.917,62.000 9.583 C 62.000 9.253,61.916 9.167,61.595 9.167 C 61.302 9.167,61.175 9.063,61.137 8.792 C 61.097 8.510,60.990 8.430,60.708 8.469 C 60.403 8.511,60.333 8.441,60.333 8.094 C 60.333 7.778,60.247 7.667,60.000 7.667 C 59.817 7.667,59.657 7.592,59.646 7.500 C 59.634 7.408,59.616 7.240,59.604 7.125 C 59.593 7.010,59.422 6.894,59.224 6.865 C 59.005 6.834,58.825 6.655,58.762 6.407 C 58.699 6.153,58.541 6.000,58.342 6.000 C 58.138 6.000,58.004 5.865,57.970 5.625 C 57.936 5.384,57.783 5.231,57.542 5.197 C 57.302 5.163,57.167 5.028,57.167 4.825 C 57.167 4.624,57.013 4.468,56.750 4.402 C 56.496 4.338,56.333 4.178,56.333 3.994 C 56.333 3.805,56.191 3.670,55.958 3.637 C 55.712 3.602,55.583 3.469,55.583 3.250 C 55.583 3.034,55.455 2.898,55.219 2.865 C 54.991 2.832,54.834 2.675,54.802 2.448 C 54.770 2.221,54.612 2.064,54.385 2.031 C 54.158 1.999,54.001 1.842,53.969 1.615 C 53.936 1.384,53.779 1.230,53.542 1.197 C 53.309 1.164,53.167 1.028,53.167 0.840 C 53.167 0.655,53.004 0.495,52.750 0.432 C 52.521 0.374,52.333 0.253,52.333 0.163 C 52.333 0.069,51.703 0.000,50.833 0.000 C 49.611 0.000,49.333 0.046,49.333 0.250 M32.479 16.458 C 32.467 16.527,32.439 16.764,32.417 16.984 L 32.376 17.385 32.675 16.989 C 32.970 16.598,32.963 16.333,32.657 16.333 C 32.571 16.333,32.490 16.390,32.479 16.458 M80.958 28.444 C 81.073 28.490,81.168 28.653,81.169 28.806 C 81.171 29.046,81.194 29.050,81.333 28.833 C 81.472 28.618,81.495 28.623,81.497 28.867 C 81.499 29.023,81.674 29.282,81.887 29.443 C 82.246 29.713,82.257 29.769,82.040 30.204 C 81.810 30.664,81.861 32.473,82.114 32.884 C 82.171 32.976,82.136 33.001,82.036 32.939 C 81.936 32.877,81.779 32.959,81.689 33.121 C 81.598 33.284,81.481 33.398,81.428 33.375 C 81.376 33.352,81.333 33.371,81.333 33.417 C 81.333 33.462,81.333 33.575,81.333 33.667 C 81.333 33.978,81.864 33.835,81.952 33.500 C 82.000 33.317,82.144 33.167,82.273 33.167 C 82.402 33.167,82.590 32.986,82.691 32.764 C 82.791 32.543,83.015 32.325,83.187 32.280 C 83.699 32.146,83.603 30.167,83.085 30.167 C 82.968 30.167,82.747 29.977,82.595 29.745 C 82.443 29.513,82.255 29.362,82.178 29.410 C 82.101 29.457,81.945 29.385,81.832 29.248 C 81.719 29.112,81.691 28.998,81.771 28.994 C 81.851 28.991,81.740 28.841,81.523 28.661 C 81.307 28.481,81.044 28.339,80.940 28.346 C 80.817 28.355,80.824 28.389,80.958 28.444 M18.000 31.269 C 18.000 31.644,17.942 31.694,17.586 31.626 C 17.221 31.557,17.184 31.594,17.271 31.940 C 17.356 32.278,17.308 32.333,16.935 32.333 C 16.664 32.333,16.500 32.425,16.500 32.578 C 16.500 32.713,16.402 32.785,16.281 32.739 C 16.161 32.693,15.962 32.843,15.839 33.072 C 15.717 33.301,15.553 33.449,15.475 33.401 C 15.397 33.353,15.333 33.393,15.333 33.490 C 15.333 33.587,15.408 33.667,15.500 33.667 C 15.592 33.667,15.667 33.753,15.667 33.859 C 15.667 33.966,15.506 33.911,15.305 33.734 C 15.042 33.503,14.968 33.485,15.034 33.668 C 15.145 33.975,14.825 34.303,14.515 34.199 C 14.377 34.154,14.333 34.198,14.403 34.312 C 14.467 34.415,14.436 34.500,14.333 34.500 C 14.231 34.500,14.193 34.575,14.250 34.667 C 14.307 34.758,14.203 34.833,14.019 34.833 C 13.643 34.833,13.151 35.431,13.270 35.742 C 13.313 35.855,13.222 36.052,13.067 36.180 C 12.813 36.391,12.797 36.376,12.912 36.016 C 13.022 35.667,13.007 35.647,12.786 35.851 C 12.648 35.979,12.565 36.132,12.601 36.192 C 12.637 36.252,12.441 36.379,12.166 36.475 C 11.892 36.571,11.667 36.761,11.667 36.897 C 11.667 37.033,11.517 37.192,11.334 37.250 C 11.151 37.308,10.956 37.533,10.902 37.750 C 10.840 37.997,10.716 38.111,10.572 38.056 C 10.433 38.003,10.263 38.139,10.144 38.400 C 10.035 38.638,9.854 38.833,9.741 38.833 C 9.486 38.833,9.294 39.289,9.497 39.415 C 9.579 39.466,9.724 39.374,9.818 39.212 C 9.980 38.933,9.990 38.933,9.995 39.208 C 9.998 39.369,9.925 39.509,9.833 39.521 C 9.742 39.532,9.592 39.560,9.500 39.583 C 9.408 39.606,9.146 39.634,8.917 39.646 C 8.586 39.662,8.500 39.755,8.500 40.093 C 8.500 40.333,8.428 40.475,8.335 40.417 C 8.244 40.361,8.062 40.376,7.930 40.449 C 7.700 40.578,7.667 40.646,7.667 40.988 C 7.667 41.074,7.498 41.167,7.292 41.197 C 7.051 41.231,6.898 41.384,6.863 41.625 C 6.834 41.831,6.740 42.009,6.655 42.021 C 6.570 42.032,6.406 42.051,6.292 42.063 C 6.177 42.075,6.083 42.272,6.083 42.501 C 6.083 42.832,6.009 42.906,5.722 42.867 C 5.480 42.834,5.326 42.927,5.255 43.150 C 5.197 43.333,5.003 43.529,4.825 43.586 C 4.646 43.643,4.500 43.825,4.500 43.991 C 4.500 44.157,4.373 44.395,4.218 44.521 C 3.979 44.715,3.957 44.715,4.075 44.520 C 4.170 44.361,4.142 44.314,3.982 44.366 C 3.854 44.408,3.727 44.601,3.698 44.794 C 3.667 45.008,3.503 45.167,3.281 45.198 C 3.056 45.230,2.897 45.387,2.865 45.609 C 2.834 45.828,2.655 46.009,2.408 46.071 C 2.185 46.127,2.010 46.227,2.021 46.295 C 2.076 46.652,1.962 46.816,1.625 46.863 C 1.379 46.898,1.250 47.031,1.250 47.250 C 1.250 47.472,1.138 47.583,0.916 47.583 C 0.698 47.583,0.565 47.712,0.530 47.958 C 0.501 48.165,0.370 48.333,0.238 48.333 C -0.119 48.333,-0.108 51.423,0.250 51.560 C 0.388 51.613,0.500 51.809,0.500 51.995 C 0.500 52.246,0.609 52.333,0.924 52.333 C 1.224 52.333,1.334 52.412,1.299 52.603 C 1.272 52.751,1.397 52.957,1.576 53.061 C 2.142 53.389,2.392 53.665,2.137 53.680 C 2.016 53.687,2.123 53.768,2.375 53.860 C 2.657 53.964,2.833 54.150,2.833 54.347 C 2.833 54.577,2.950 54.667,3.250 54.667 C 3.631 54.667,3.764 54.883,3.686 55.375 C 3.676 55.444,3.854 55.500,4.083 55.500 C 4.395 55.500,4.500 55.588,4.500 55.849 C 4.500 56.058,4.634 56.233,4.833 56.285 C 5.017 56.333,5.167 56.433,5.167 56.508 C 5.167 56.760,5.709 57.186,5.924 57.103 C 6.042 57.058,6.182 57.133,6.234 57.269 C 6.294 57.425,6.260 57.474,6.143 57.402 C 6.031 57.333,5.987 57.379,6.033 57.518 C 6.075 57.646,6.268 57.773,6.461 57.802 C 6.675 57.833,6.833 57.997,6.865 58.219 C 6.898 58.449,7.054 58.603,7.292 58.637 C 7.498 58.666,7.668 58.778,7.669 58.887 C 7.671 59.002,7.738 58.980,7.833 58.833 C 7.930 58.683,7.996 58.663,7.997 58.782 C 7.999 58.891,7.924 59.027,7.831 59.085 C 7.583 59.238,7.801 59.500,8.177 59.500 C 8.382 59.500,8.500 59.614,8.500 59.813 C 8.500 60.002,8.693 60.206,8.989 60.329 C 9.299 60.457,9.445 60.617,9.388 60.766 C 9.328 60.921,9.416 61.000,9.649 61.000 C 9.850 61.000,10.000 61.107,10.000 61.250 C 10.000 61.387,10.131 61.501,10.292 61.503 C 10.543 61.505,10.548 61.529,10.333 61.677 C 10.136 61.812,10.171 61.838,10.500 61.799 C 10.806 61.763,10.905 61.821,10.873 62.019 C 10.808 62.415,11.243 62.700,11.912 62.700 C 12.483 62.700,12.721 63.010,12.333 63.250 C 12.242 63.307,12.167 63.274,12.167 63.177 C 12.167 63.079,12.035 63.002,11.875 63.005 C 11.608 63.010,11.610 63.031,11.900 63.250 C 12.073 63.382,12.274 63.453,12.346 63.409 C 12.418 63.365,12.500 63.498,12.530 63.706 C 12.564 63.949,12.716 64.102,12.958 64.137 C 13.202 64.171,13.333 64.305,13.333 64.517 C 13.333 64.697,13.465 64.891,13.625 64.948 C 13.785 65.005,14.067 65.227,14.250 65.441 C 14.448 65.672,14.797 65.845,15.109 65.866 C 15.507 65.893,15.621 65.971,15.579 66.190 C 15.513 66.532,15.811 66.808,16.181 66.747 C 16.326 66.724,16.444 66.796,16.444 66.908 C 16.444 67.020,16.348 67.111,16.230 67.111 C 16.111 67.111,16.060 67.037,16.116 66.946 C 16.179 66.846,16.131 66.836,15.994 66.921 C 15.815 67.031,15.830 67.095,16.070 67.238 C 16.236 67.336,16.582 67.623,16.839 67.875 C 17.097 68.127,17.463 68.333,17.654 68.333 C 17.905 68.333,18.000 68.440,18.000 68.722 C 18.000 69.136,18.409 69.259,18.789 68.959 C 19.006 68.788,19.110 32.003,18.896 31.208 C 18.741 30.635,18.000 30.686,18.000 31.269 M83.333 31.538 C 83.333 31.642,83.244 31.634,83.103 31.516 C 82.925 31.369,82.850 31.383,82.775 31.579 C 82.721 31.719,82.601 31.833,82.507 31.833 C 82.413 31.833,82.459 31.690,82.609 31.515 C 82.880 31.198,83.333 31.213,83.333 31.538 M80.727 34.249 C 80.675 34.386,80.565 34.457,80.483 34.406 C 80.400 34.355,80.333 34.398,80.333 34.502 C 80.333 34.806,81.075 34.611,81.136 34.292 C 81.203 33.937,80.861 33.901,80.727 34.249 M79.817 35.269 C 79.624 35.502,79.636 35.530,79.908 35.478 C 80.081 35.444,80.254 35.323,80.292 35.208 C 80.391 34.911,80.082 34.951,79.817 35.269 M79.005 35.993 C 78.870 36.079,78.803 36.192,78.856 36.245 C 78.987 36.376,79.500 36.167,79.500 35.982 C 79.500 35.792,79.316 35.796,79.005 35.993 M88.750 36.667 C 88.693 36.758,88.689 36.843,88.740 36.854 C 89.092 36.933,89.266 36.906,89.372 36.756 C 89.444 36.655,89.496 36.702,89.497 36.869 C 89.499 37.098,89.355 37.152,88.768 37.140 C 87.904 37.122,87.667 37.238,87.667 37.677 C 87.667 37.910,87.551 38.000,87.250 38.000 C 86.917 38.000,86.833 38.083,86.833 38.417 C 86.833 38.750,86.750 38.833,86.417 38.833 C 86.123 38.833,86.000 38.924,86.000 39.140 C 86.000 39.309,85.805 39.535,85.567 39.644 C 85.290 39.770,85.168 39.930,85.228 40.087 C 85.296 40.263,85.206 40.333,84.911 40.333 C 84.584 40.333,84.500 40.418,84.500 40.750 C 84.500 41.083,84.417 41.167,84.083 41.167 C 83.750 41.167,83.667 41.250,83.667 41.583 C 83.667 41.913,83.583 42.000,83.262 42.000 C 82.968 42.000,82.842 42.104,82.803 42.375 C 82.769 42.616,82.616 42.769,82.375 42.803 C 82.104 42.842,82.000 42.968,82.000 43.262 C 82.000 43.484,81.944 43.658,81.875 43.647 C 81.531 43.593,81.346 43.697,81.250 44.000 C 81.192 44.183,81.007 44.333,80.840 44.333 C 80.673 44.333,80.492 44.446,80.440 44.583 C 80.321 44.892,80.348 44.892,80.935 44.588 C 81.854 44.111,81.805 43.364,81.836 58.189 C 81.861 70.393,81.867 70.627,82.183 70.544 C 82.573 70.442,82.598 70.403,82.741 69.667 C 82.829 69.212,82.812 69.138,82.664 69.333 C 82.509 69.538,82.486 69.540,82.539 69.344 C 82.665 68.878,83.053 68.925,82.963 69.395 C 82.858 69.948,83.077 69.959,83.432 69.417 C 83.582 69.188,83.807 69.000,83.933 69.000 C 84.176 69.000,84.430 68.275,84.357 67.792 C 84.331 67.624,84.419 67.500,84.563 67.500 C 84.869 67.500,85.064 67.774,84.850 67.906 C 84.765 67.959,84.657 67.925,84.610 67.830 C 84.563 67.736,84.543 67.749,84.565 67.860 C 84.633 68.207,84.967 68.201,85.078 67.851 C 85.136 67.667,85.326 67.472,85.500 67.417 C 85.674 67.361,85.863 67.170,85.919 66.991 C 85.976 66.813,86.128 66.667,86.257 66.667 C 86.386 66.667,86.609 66.439,86.753 66.161 C 86.897 65.883,87.086 65.700,87.174 65.755 C 87.262 65.809,87.407 65.661,87.496 65.427 C 87.597 65.163,87.787 65.000,87.996 65.000 C 88.216 65.000,88.333 64.890,88.333 64.685 C 88.333 64.487,88.489 64.330,88.750 64.265 C 89.019 64.197,89.167 64.043,89.167 63.830 C 89.167 63.612,89.279 63.500,89.497 63.500 C 89.710 63.500,89.864 63.352,89.932 63.083 C 89.994 62.834,90.155 62.667,90.334 62.667 C 90.647 62.667,90.900 62.243,90.741 61.985 C 90.689 61.902,90.839 61.833,91.073 61.833 C 91.388 61.833,91.500 61.746,91.500 61.503 C 91.500 61.287,91.649 61.136,91.930 61.065 C 92.247 60.985,92.339 60.875,92.279 60.645 C 92.235 60.474,92.285 60.325,92.391 60.314 C 92.497 60.304,92.696 60.285,92.833 60.272 C 92.971 60.260,93.107 60.086,93.135 59.885 C 93.168 59.658,93.325 59.501,93.552 59.469 C 93.779 59.436,93.936 59.279,93.969 59.052 C 94.001 58.825,94.158 58.668,94.385 58.635 C 94.606 58.604,94.742 58.473,94.729 58.304 C 94.717 58.142,94.869 57.985,95.093 57.929 C 95.305 57.876,95.525 57.683,95.583 57.500 C 95.642 57.316,95.795 57.167,95.925 57.167 C 96.054 57.167,96.206 56.983,96.262 56.760 C 96.325 56.512,96.505 56.332,96.724 56.301 C 96.928 56.272,97.084 56.129,97.085 55.970 C 97.088 55.670,97.267 55.430,97.514 55.396 C 97.598 55.384,97.742 55.366,97.833 55.354 C 97.925 55.343,98.000 55.189,98.000 55.012 C 98.000 54.806,98.135 54.669,98.375 54.633 C 98.581 54.601,98.731 54.482,98.707 54.367 C 98.684 54.253,98.860 54.085,99.098 53.994 C 99.337 53.904,99.569 53.687,99.615 53.513 C 99.660 53.340,99.841 53.160,100.015 53.114 C 100.200 53.066,100.333 52.885,100.333 52.682 C 100.333 52.421,100.438 52.333,100.750 52.333 C 101.083 52.333,101.167 52.250,101.167 51.917 C 101.167 51.523,101.309 51.425,101.792 51.488 C 101.919 51.504,102.000 51.315,102.000 51.002 C 102.000 50.700,102.103 50.450,102.250 50.394 C 102.388 50.341,102.500 50.165,102.500 50.003 C 102.500 49.840,102.388 49.614,102.250 49.500 C 102.112 49.386,102.000 49.116,102.000 48.899 C 102.000 48.622,101.881 48.476,101.593 48.404 C 101.345 48.342,101.166 48.161,101.135 47.943 C 101.097 47.677,100.986 47.597,100.708 47.635 C 100.403 47.678,100.333 47.608,100.333 47.260 C 100.333 46.913,100.253 46.833,99.907 46.833 C 99.672 46.833,99.522 46.765,99.574 46.682 C 99.735 46.422,99.479 46.000,99.160 46.000 C 98.972 46.000,98.836 45.857,98.803 45.625 C 98.770 45.388,98.616 45.231,98.385 45.198 C 98.158 45.166,98.001 45.009,97.969 44.781 C 97.936 44.554,97.779 44.397,97.552 44.365 C 97.325 44.332,97.168 44.175,97.135 43.948 C 97.099 43.691,96.972 43.587,96.708 43.597 C 96.423 43.607,96.333 43.517,96.333 43.222 C 96.333 42.946,96.238 42.833,96.003 42.833 C 95.790 42.833,95.636 42.686,95.568 42.417 C 95.492 42.114,95.352 42.000,95.055 42.000 C 94.831 42.000,94.689 41.932,94.741 41.848 C 94.901 41.588,94.646 41.167,94.327 41.167 C 94.139 41.167,94.003 41.024,93.970 40.792 C 93.935 40.546,93.802 40.417,93.583 40.417 C 93.369 40.417,93.232 40.288,93.199 40.057 C 93.168 39.839,92.988 39.658,92.740 39.596 C 92.486 39.532,92.333 39.374,92.333 39.175 C 92.333 38.972,92.198 38.837,91.958 38.803 C 91.717 38.769,91.564 38.616,91.530 38.375 C 91.498 38.147,91.361 38.000,91.182 38.000 C 91.020 38.000,90.799 37.808,90.693 37.574 C 90.586 37.340,90.424 37.194,90.334 37.250 C 90.243 37.306,90.037 37.275,89.876 37.181 C 89.715 37.087,89.649 37.008,89.729 37.005 C 89.809 37.002,89.781 36.887,89.667 36.750 C 89.431 36.466,88.904 36.418,88.750 36.667 M11.635 37.823 C 11.677 37.948,11.615 38.010,11.490 37.969 C 11.369 37.929,11.238 37.797,11.198 37.677 C 11.156 37.552,11.219 37.490,11.344 37.531 C 11.464 37.571,11.595 37.703,11.635 37.823 M32.075 44.652 C 32.126 44.736,32.075 44.839,31.959 44.880 C 31.844 44.921,31.801 45.010,31.864 45.077 C 31.927 45.145,32.058 45.151,32.156 45.090 C 32.386 44.948,32.387 44.500,32.157 44.500 C 32.060 44.500,32.023 44.569,32.075 44.652 M32.667 55.833 C 32.878 56.017,32.990 56.167,32.916 56.167 C 32.842 56.167,32.917 56.317,33.083 56.500 C 33.415 56.867,34.070 56.960,33.958 56.625 C 33.920 56.510,33.801 56.407,33.694 56.396 C 33.587 56.384,33.425 56.366,33.333 56.354 C 33.242 56.343,33.167 56.179,33.167 55.990 C 33.167 55.801,33.092 55.693,33.000 55.750 C 32.908 55.807,32.833 55.774,32.833 55.677 C 32.833 55.579,32.709 55.500,32.558 55.500 C 32.338 55.500,32.360 55.567,32.667 55.833 M33.991 57.542 C 34.351 57.925,34.431 58.098,34.264 58.134 C 33.850 58.224,33.841 58.473,33.829 70.788 C 33.821 79.160,33.762 82.969,33.638 83.118 C 33.379 83.430,32.815 83.382,32.725 83.039 C 32.623 82.648,31.667 82.082,31.667 82.413 C 31.667 82.540,31.835 82.667,32.042 82.697 C 32.288 82.732,32.417 82.865,32.417 83.083 C 32.417 83.357,32.528 83.417,33.033 83.417 C 33.423 83.417,33.592 83.475,33.492 83.575 C 33.189 83.877,33.306 84.379,33.657 84.287 C 33.910 84.221,33.993 84.299,34.032 84.643 C 34.060 84.885,34.177 85.093,34.292 85.104 C 34.406 85.116,34.575 85.134,34.667 85.146 C 34.758 85.157,34.833 85.317,34.833 85.500 C 34.833 85.744,34.944 85.833,35.250 85.833 C 35.583 85.833,35.667 85.917,35.667 86.250 C 35.667 86.583,35.750 86.667,36.083 86.667 C 36.313 86.667,36.491 86.723,36.480 86.792 C 36.404 87.274,36.536 87.500,36.895 87.500 C 37.199 87.500,37.285 87.586,37.270 87.875 C 37.256 88.140,37.355 88.265,37.608 88.301 C 37.805 88.329,38.004 88.498,38.051 88.676 C 38.101 88.867,38.279 89.000,38.484 89.000 C 38.745 89.000,38.833 89.105,38.833 89.417 C 38.833 89.745,38.918 89.833,39.232 89.833 C 39.518 89.833,39.660 89.951,39.735 90.250 C 39.793 90.479,39.949 90.667,40.083 90.667 C 40.217 90.667,40.373 90.850,40.429 91.074 C 40.491 91.322,40.672 91.501,40.891 91.532 C 41.115 91.564,41.241 91.694,41.227 91.876 C 41.212 92.057,41.356 92.208,41.602 92.269 C 41.846 92.331,42.000 92.491,42.000 92.685 C 42.000 92.910,42.119 93.000,42.417 93.000 C 42.750 93.000,42.833 93.083,42.833 93.417 C 42.833 93.750,42.917 93.833,43.250 93.833 C 43.580 93.833,43.667 93.917,43.667 94.238 C 43.667 94.532,43.770 94.658,44.042 94.697 C 44.283 94.731,44.436 94.884,44.470 95.125 C 44.509 95.400,44.635 95.500,44.939 95.500 C 45.278 95.500,45.336 95.562,45.252 95.828 C 45.171 96.082,45.243 96.180,45.574 96.263 C 45.960 96.359,46.076 96.519,46.020 96.875 C 46.009 96.944,46.187 97.000,46.417 97.000 C 46.750 97.000,46.833 97.083,46.833 97.417 C 46.833 97.750,46.917 97.833,47.250 97.833 C 47.583 97.833,47.667 97.917,47.667 98.250 C 47.667 98.580,47.751 98.667,48.072 98.667 C 48.365 98.667,48.492 98.770,48.530 99.042 C 48.559 99.248,48.677 99.426,48.792 99.438 C 48.906 99.449,49.073 99.468,49.161 99.479 C 49.250 99.491,49.282 99.607,49.232 99.737 C 49.182 99.868,49.277 100.046,49.445 100.135 C 49.877 100.363,51.666 100.338,51.669 100.104 C 51.671 99.996,51.734 100.014,51.817 100.146 C 52.006 100.444,52.333 100.239,52.333 99.823 C 52.333 99.590,52.449 99.500,52.750 99.500 C 53.080 99.500,53.167 99.416,53.167 99.095 C 53.167 98.802,53.270 98.675,53.542 98.637 C 53.783 98.602,53.936 98.449,53.970 98.208 C 54.008 97.937,54.135 97.833,54.428 97.833 C 54.651 97.833,54.824 97.777,54.814 97.708 C 54.745 97.272,54.881 97.016,55.208 96.970 C 55.454 96.935,55.583 96.802,55.584 96.584 C 55.584 96.362,55.695 96.250,55.917 96.250 C 56.135 96.250,56.268 96.121,56.303 95.875 C 56.350 95.548,56.605 95.411,57.042 95.480 C 57.110 95.491,57.167 95.313,57.167 95.083 C 57.167 94.750,57.250 94.667,57.583 94.667 C 57.917 94.667,58.000 94.583,58.000 94.250 C 58.000 93.917,58.083 93.833,58.417 93.833 C 58.646 93.833,58.824 93.777,58.814 93.708 C 58.735 93.208,58.868 93.000,59.268 93.000 C 59.569 93.000,59.675 92.929,59.614 92.770 C 59.500 92.474,59.807 92.167,60.104 92.281 C 60.263 92.342,60.333 92.235,60.333 91.934 C 60.333 91.582,60.412 91.500,60.750 91.500 C 61.083 91.500,61.167 91.417,61.167 91.083 C 61.167 90.750,61.250 90.667,61.583 90.667 C 61.917 90.667,62.000 90.583,62.000 90.250 C 62.000 89.869,62.216 89.736,62.708 89.814 C 62.777 89.824,62.833 89.646,62.833 89.417 C 62.833 89.086,62.917 89.000,63.240 89.000 C 63.558 89.000,63.633 88.927,63.583 88.667 C 63.525 88.362,63.741 88.240,64.208 88.314 C 64.277 88.324,64.333 88.146,64.333 87.917 C 64.333 87.583,64.417 87.500,64.750 87.500 C 65.086 87.500,65.167 87.417,65.167 87.073 C 65.167 86.839,65.095 86.691,65.007 86.746 C 64.920 86.800,64.884 86.938,64.928 87.053 C 65.066 87.414,64.352 87.333,64.090 86.958 C 63.876 86.654,63.841 84.972,63.833 74.844 C 63.827 68.376,63.780 62.690,63.726 62.210 C 63.647 61.497,63.679 61.318,63.902 61.232 C 64.105 61.154,64.129 61.072,63.995 60.910 C 63.854 60.741,63.889 60.713,64.157 60.783 C 64.346 60.832,64.500 60.792,64.500 60.695 C 64.500 60.597,64.688 60.315,64.917 60.068 C 65.146 59.820,65.329 59.498,65.323 59.351 C 65.316 59.175,65.261 59.212,65.161 59.458 C 65.079 59.665,64.896 59.833,64.755 59.833 C 64.615 59.833,64.512 59.890,64.526 59.958 C 64.601 60.313,64.287 60.669,64.064 60.484 C 63.878 60.329,63.813 60.393,63.730 60.810 C 63.673 61.095,63.557 61.285,63.472 61.233 C 63.247 61.093,62.804 61.517,62.904 61.777 C 62.964 61.932,62.840 62.000,62.495 62.000 C 62.160 62.000,62.000 62.083,62.000 62.257 C 62.000 62.398,61.839 62.680,61.642 62.882 C 61.445 63.084,61.344 63.145,61.418 63.016 C 61.505 62.863,61.488 62.821,61.366 62.896 C 61.265 62.959,61.221 63.115,61.270 63.242 C 61.327 63.392,61.222 63.493,60.971 63.528 C 60.717 63.564,60.565 63.713,60.530 63.958 C 60.492 64.230,60.365 64.333,60.072 64.333 C 59.751 64.333,59.667 64.420,59.667 64.750 C 59.667 65.083,59.583 65.167,59.250 65.167 C 58.917 65.167,58.833 65.250,58.833 65.583 C 58.833 65.919,58.751 66.000,58.407 66.000 C 58.172 66.000,58.017 66.060,58.063 66.133 C 58.168 66.303,57.899 66.744,57.673 66.771 C 57.578 66.782,57.416 66.801,57.314 66.813 C 57.212 66.824,57.167 66.983,57.215 67.167 C 57.294 67.467,57.072 67.602,56.736 67.458 C 56.682 67.435,56.536 67.660,56.411 67.956 C 56.253 68.334,56.106 68.466,55.925 68.397 C 55.733 68.323,55.667 68.407,55.667 68.721 C 55.667 69.032,55.568 69.157,55.292 69.197 C 55.051 69.231,54.898 69.384,54.863 69.625 C 54.825 69.896,54.698 70.000,54.405 70.000 C 54.081 70.000,54.000 70.086,54.000 70.427 C 54.000 70.774,53.930 70.845,53.625 70.802 C 53.345 70.763,53.262 70.824,53.299 71.043 C 53.331 71.232,53.192 71.395,52.908 71.503 C 52.666 71.595,52.431 71.813,52.385 71.987 C 52.340 72.160,52.159 72.340,51.985 72.386 C 51.800 72.434,51.667 72.615,51.667 72.818 C 51.667 73.125,51.568 73.167,50.833 73.167 C 50.050 73.167,50.000 73.141,50.000 72.740 C 50.000 72.392,49.930 72.322,49.625 72.365 C 49.324 72.406,49.240 72.326,49.197 71.958 C 49.156 71.598,49.058 71.500,48.739 71.500 C 48.413 71.500,48.333 71.415,48.333 71.066 C 48.333 70.758,48.264 70.658,48.096 70.722 C 47.839 70.821,47.435 70.454,47.608 70.281 C 47.666 70.223,47.515 70.101,47.273 70.009 C 46.878 69.859,46.755 69.666,46.814 69.292 C 46.824 69.223,46.646 69.167,46.417 69.167 C 46.083 69.167,46.000 69.083,46.000 68.750 C 46.000 68.417,45.917 68.333,45.583 68.333 C 45.250 68.333,45.167 68.250,45.167 67.917 C 45.167 67.587,45.083 67.500,44.762 67.500 C 44.468 67.500,44.342 67.396,44.303 67.125 C 44.268 66.879,44.135 66.750,43.917 66.750 C 43.696 66.750,43.584 66.638,43.584 66.417 C 43.584 66.203,43.455 66.065,43.224 66.032 C 43.004 66.001,42.825 65.821,42.761 65.568 C 42.695 65.304,42.557 65.172,42.381 65.202 C 42.204 65.233,42.069 65.101,42.004 64.833 C 41.941 64.572,41.766 64.397,41.535 64.363 C 41.302 64.330,41.167 64.193,41.167 63.992 C 41.167 63.791,41.013 63.634,40.750 63.568 C 40.521 63.511,40.324 63.397,40.313 63.315 C 40.301 63.234,40.280 63.073,40.267 62.958 C 40.253 62.844,40.118 62.759,39.967 62.771 C 39.807 62.783,39.651 62.627,39.593 62.396 C 39.530 62.146,39.372 62.000,39.163 62.000 C 38.982 62.000,38.824 61.925,38.813 61.833 C 38.801 61.742,38.782 61.573,38.771 61.458 C 38.759 61.344,38.581 61.226,38.375 61.197 C 38.135 61.163,38.000 61.028,38.000 60.825 C 38.000 60.626,37.847 60.468,37.593 60.404 C 37.349 60.343,37.165 60.161,37.135 59.949 C 37.103 59.734,36.921 59.558,36.667 59.496 C 36.380 59.426,36.267 59.300,36.304 59.091 C 36.346 58.858,36.279 58.809,36.018 58.877 C 35.831 58.926,35.684 58.917,35.690 58.858 C 35.739 58.434,35.408 58.023,34.944 57.930 C 34.526 57.845,34.469 57.790,34.667 57.662 C 34.930 57.492,34.658 57.172,34.250 57.172 C 34.158 57.172,34.196 57.244,34.333 57.333 C 34.508 57.446,34.519 57.496,34.370 57.497 C 34.252 57.499,34.113 57.387,34.060 57.250 C 34.008 57.112,33.856 57.000,33.724 57.000 C 33.569 57.000,33.664 57.193,33.991 57.542 M15.025 66.158 C 15.097 66.373,15.325 66.412,15.346 66.212 C 15.353 66.146,15.268 66.062,15.158 66.025 C 15.048 65.988,14.988 66.048,15.025 66.158 M81.530 70.833 C 81.562 70.984,81.484 71.062,81.333 71.030 C 81.133 70.987,81.125 71.018,81.292 71.188 C 81.454 71.353,81.544 71.356,81.700 71.200 C 81.856 71.044,81.853 70.954,81.688 70.792 C 81.518 70.625,81.487 70.633,81.530 70.833 M80.846 71.458 C 80.839 71.573,80.750 71.648,80.647 71.625 C 80.545 71.602,80.439 71.715,80.412 71.875 C 80.385 72.035,80.422 72.167,80.494 72.167 C 80.726 72.167,81.035 71.685,80.946 71.464 C 80.879 71.299,80.857 71.298,80.846 71.458 M65.783 86.232 C 65.715 86.406,65.698 86.587,65.746 86.635 C 65.898 86.787,66.032 86.538,65.968 86.221 C 65.910 85.931,65.901 85.932,65.783 86.232 " stroke="none" fill="#04e474" fill-rule="evenodd"></path><path id="path5" d="M64.503 12.457 C 64.169 12.588,63.768 13.000,63.975 13.000 C 64.082 13.000,64.085 13.198,63.983 13.568 C 63.843 14.074,63.863 49.062,64.004 49.625 C 64.032 49.740,64.149 49.833,64.264 49.833 C 64.379 49.833,64.604 49.884,64.764 49.945 C 64.943 50.014,65.014 49.991,64.949 49.886 C 64.796 49.639,65.253 49.086,65.611 49.085 C 65.801 49.084,65.937 48.941,65.970 48.708 C 66.034 48.260,65.711 48.213,65.400 48.625 C 65.218 48.867,65.179 45.917,65.172 31.321 C 65.163 13.067,65.153 13.392,65.730 13.700 C 66.052 13.871,66.062 13.862,65.848 13.603 C 65.719 13.446,65.522 13.353,65.411 13.396 C 65.220 13.469,64.741 12.729,64.804 12.458 C 64.820 12.390,64.815 12.339,64.792 12.346 C 64.769 12.354,64.639 12.403,64.503 12.457 M32.874 16.430 C 33.008 16.563,32.570 17.240,32.330 17.271 C 32.240 17.282,32.100 17.301,32.019 17.313 C 31.938 17.324,31.833 17.483,31.785 17.667 C 31.706 17.970,31.843 18.081,32.219 18.016 C 32.294 18.003,32.342 18.126,32.325 18.288 C 32.175 19.753,32.365 43.500,32.526 43.401 C 32.658 43.319,32.672 43.356,32.572 43.516 C 32.341 43.887,32.352 44.111,32.602 44.111 C 32.729 44.111,32.833 43.989,32.833 43.839 C 32.833 43.471,33.160 43.169,33.575 43.155 C 33.894 43.144,33.896 43.135,33.605 43.021 C 33.319 42.908,33.330 42.874,33.735 42.608 C 33.982 42.447,34.127 42.237,34.063 42.134 C 33.994 42.022,34.024 41.995,34.141 42.067 C 34.423 42.242,34.376 41.985,34.086 41.768 C 33.872 41.608,33.837 39.957,33.825 29.333 C 33.810 16.513,33.822 16.715,33.088 16.439 C 32.908 16.371,32.811 16.367,32.874 16.430 M81.083 29.228 C 80.544 29.533,80.505 29.674,80.503 31.307 C 80.500 32.726,80.530 32.872,80.833 32.952 C 81.017 33.000,81.168 33.124,81.169 33.228 C 81.171 33.332,81.244 33.304,81.333 33.167 C 81.477 32.944,81.496 32.944,81.503 33.167 C 81.508 33.362,81.548 33.352,81.682 33.121 C 81.776 32.959,81.936 32.877,82.036 32.939 C 82.136 33.001,82.173 32.978,82.118 32.889 C 81.912 32.557,81.820 30.826,81.977 30.258 C 82.077 29.895,82.079 29.632,81.983 29.573 C 81.898 29.520,81.879 29.388,81.941 29.280 C 82.003 29.172,81.992 29.139,81.917 29.207 C 81.842 29.275,81.699 29.265,81.599 29.184 C 81.492 29.099,81.279 29.117,81.083 29.228 M20.000 29.330 C 19.862 29.417,19.741 29.566,19.729 29.661 C 19.718 29.756,19.699 29.913,19.688 30.010 C 19.676 30.107,19.607 30.149,19.534 30.104 C 18.992 29.769,18.984 30.060,18.994 49.546 C 19.000 61.780,18.945 68.848,18.842 68.911 C 18.429 69.166,19.018 69.825,19.667 69.833 C 19.982 69.837,20.025 69.875,19.844 69.990 C 19.646 70.115,19.642 70.186,19.823 70.404 C 20.516 71.240,20.500 71.732,20.500 49.917 C 20.500 38.504,20.444 29.168,20.375 29.169 C 20.306 29.171,20.137 29.243,20.000 29.330 M82.609 31.515 C 82.459 31.690,82.413 31.833,82.507 31.833 C 82.601 31.833,82.721 31.719,82.775 31.579 C 82.850 31.383,82.925 31.369,83.103 31.516 C 83.244 31.634,83.333 31.642,83.333 31.538 C 83.333 31.213,82.880 31.198,82.609 31.515 M80.934 33.694 C 80.981 33.771,80.907 33.833,80.770 33.833 C 80.473 33.833,80.274 34.103,80.410 34.322 C 80.463 34.408,80.692 34.306,80.920 34.095 C 81.397 33.653,81.428 33.556,81.091 33.556 C 80.957 33.556,80.887 33.618,80.934 33.694 M13.000 35.917 C 12.882 36.059,12.823 36.212,12.869 36.258 C 12.915 36.304,13.049 36.225,13.167 36.083 C 13.284 35.941,13.343 35.788,13.298 35.742 C 13.252 35.696,13.118 35.775,13.000 35.917 M11.198 37.677 C 11.238 37.797,11.369 37.929,11.490 37.969 C 11.615 38.010,11.677 37.948,11.635 37.823 C 11.595 37.703,11.464 37.571,11.344 37.531 C 11.219 37.490,11.156 37.552,11.198 37.677 M9.782 39.227 C 9.720 39.389,9.599 39.478,9.513 39.425 C 9.427 39.371,9.312 39.400,9.257 39.489 C 9.201 39.579,9.314 39.619,9.518 39.580 C 9.968 39.493,10.053 39.410,9.965 39.144 C 9.918 39.004,9.857 39.032,9.782 39.227 M80.870 44.615 C 80.570 44.760,80.363 44.919,80.411 44.967 C 80.459 45.014,80.330 45.137,80.125 45.239 C 79.921 45.341,79.735 45.573,79.713 45.754 C 79.691 45.935,79.715 45.989,79.767 45.874 C 79.819 45.759,79.930 45.707,80.014 45.759 C 80.098 45.811,80.167 45.736,80.167 45.593 C 80.167 45.450,80.242 45.333,80.333 45.333 C 80.465 45.333,80.642 69.658,80.516 70.387 C 80.502 70.463,80.551 70.488,80.623 70.444 C 80.695 70.399,80.898 70.469,81.075 70.598 C 81.282 70.749,81.316 70.833,81.171 70.833 C 81.046 70.833,80.990 70.878,81.045 70.934 C 81.100 70.989,81.306 70.921,81.503 70.783 L 81.862 70.532 81.836 58.141 C 81.804 43.258,81.867 44.132,80.870 44.615 M32.158 55.572 C 32.448 55.922,32.411 81.514,32.120 81.699 C 32.008 81.770,31.842 81.862,31.750 81.903 C 31.587 81.977,32.168 82.584,32.510 82.698 C 32.604 82.729,32.693 82.909,32.707 83.098 C 32.728 83.368,32.824 83.427,33.158 83.374 C 33.507 83.319,33.538 83.342,33.333 83.500 C 33.111 83.671,33.111 83.684,33.333 83.624 C 33.471 83.586,33.583 83.474,33.583 83.375 C 33.583 83.276,33.636 83.142,33.700 83.077 C 33.765 83.013,33.823 77.496,33.829 70.817 C 33.841 58.474,33.850 58.224,34.264 58.134 C 34.431 58.098,34.356 57.930,34.002 57.553 C 33.575 57.098,33.546 57.013,33.794 56.948 C 34.024 56.887,34.012 56.868,33.734 56.853 C 33.424 56.835,32.609 56.167,32.898 56.167 C 32.963 56.167,32.828 55.979,32.598 55.750 C 32.154 55.305,31.826 55.173,32.158 55.572 M65.300 59.403 C 65.267 59.628,65.147 59.733,64.958 59.701 C 64.604 59.642,64.574 59.762,64.911 59.891 C 65.058 59.948,65.285 59.802,65.486 59.520 C 65.736 59.168,65.760 59.056,65.583 59.056 C 65.454 59.056,65.327 59.212,65.300 59.403 M64.684 60.319 C 64.556 60.400,64.496 60.583,64.551 60.726 C 64.635 60.944,64.580 60.959,64.217 60.821 C 63.838 60.677,63.810 60.688,63.996 60.911 C 64.202 61.160,64.076 61.255,63.631 61.188 C 63.566 61.179,63.543 61.264,63.580 61.377 C 63.783 61.993,63.820 63.947,63.830 74.761 C 63.840 84.960,63.876 86.654,64.090 86.958 C 64.354 87.335,65.066 87.413,64.927 87.050 C 64.847 86.842,65.382 86.437,65.534 86.590 C 65.577 86.633,65.698 86.480,65.803 86.251 C 65.957 85.912,65.948 85.833,65.756 85.833 C 65.437 85.833,65.280 86.117,65.541 86.223 C 65.667 86.274,65.634 86.312,65.458 86.320 C 65.183 86.333,65.167 85.632,65.167 73.843 C 65.167 65.311,65.111 61.319,64.992 61.245 C 64.871 61.170,64.874 61.069,65.000 60.917 C 65.129 60.762,65.130 60.664,65.005 60.587 C 64.908 60.526,64.871 60.407,64.924 60.322 C 65.042 60.130,64.984 60.129,64.684 60.319 M11.948 62.792 C 11.908 62.860,12.000 63.044,12.152 63.200 C 12.412 63.466,12.431 63.458,12.462 63.075 C 12.494 62.690,12.124 62.486,11.948 62.792 M84.336 67.792 C 84.338 68.041,84.362 68.047,84.500 67.833 C 84.617 67.652,84.662 67.643,84.664 67.802 C 84.666 67.921,84.743 67.973,84.836 67.915 C 85.057 67.778,84.881 67.500,84.573 67.500 C 84.441 67.500,84.334 67.631,84.336 67.792 M82.611 69.111 C 82.550 69.172,82.501 69.303,82.503 69.403 C 82.504 69.502,82.585 69.471,82.684 69.333 C 82.827 69.133,82.846 69.157,82.780 69.459 C 82.735 69.665,82.766 69.792,82.849 69.740 C 82.932 69.689,83.000 69.501,83.000 69.323 C 83.000 69.000,82.820 68.902,82.611 69.111 " stroke="none" fill="#1cec84" fill-rule="evenodd"></path><path id="path6" d="M65.375 14.110 C 65.135 14.207,65.060 48.248,65.300 48.396 C 65.373 48.441,65.529 48.418,65.647 48.346 C 65.814 48.242,65.803 48.191,65.597 48.112 C 65.250 47.978,65.187 14.547,65.533 14.200 C 65.744 13.989,65.715 13.973,65.375 14.110 M20.581 49.917 C 20.581 60.550,20.601 64.925,20.625 59.638 C 20.649 54.351,20.649 45.651,20.625 40.305 C 20.601 34.958,20.581 39.283,20.581 49.917 M64.979 61.224 C 65.111 61.384,65.177 65.021,65.207 73.835 C 65.245 84.680,65.281 86.231,65.500 86.290 C 65.649 86.331,65.683 86.303,65.583 86.221 C 65.351 86.029,65.361 86.557,65.342 73.125 C 65.327 62.137,65.300 61.000,65.059 61.000 C 64.855 61.000,64.836 61.052,64.979 61.224 " stroke="none" fill="#24ec84" fill-rule="evenodd"></path><path id="path7" d="" stroke="none" fill="#100f0f0" fill-rule="evenodd"></path></g></svg>